<mxfile host="app.diagrams.net" agent="Mozilla/5.0 (Windows NT 10.0; Win64; x64) AppleWebKit/537.36 (KHTML, like Gecko) Chrome/136.0.0.0 Safari/537.36" version="27.0.2" pages="4">
  <diagram name="ActedIn" id="Qj8BwG0FOwz22Pj_Dzrw">
    <mxGraphModel dx="922" dy="776" grid="1" gridSize="10" guides="1" tooltips="1" connect="1" arrows="1" fold="1" page="1" pageScale="1" pageWidth="827" pageHeight="1169" math="0" shadow="0">
      <root>
        <mxCell id="0" />
        <mxCell id="1" parent="0" />
        <mxCell id="dnQoGHi0yteGRvflAniu-1" value="" style="group" parent="1" vertex="1" connectable="0">
          <mxGeometry x="120" y="40" width="120" height="65" as="geometry" />
        </mxCell>
        <mxCell id="dnQoGHi0yteGRvflAniu-2" value="" style="rounded=0;whiteSpace=wrap;html=1;fillColor=none;" parent="dnQoGHi0yteGRvflAniu-1" vertex="1">
          <mxGeometry y="5" width="120" height="60" as="geometry" />
        </mxCell>
        <mxCell id="dnQoGHi0yteGRvflAniu-3" value="" style="rounded=0;whiteSpace=wrap;html=1;fillColor=none;" parent="dnQoGHi0yteGRvflAniu-1" vertex="1">
          <mxGeometry x="40" y="5" width="40" height="20" as="geometry" />
        </mxCell>
        <mxCell id="dnQoGHi0yteGRvflAniu-4" value="1" style="text;html=1;align=center;verticalAlign=middle;whiteSpace=wrap;rounded=0;" parent="dnQoGHi0yteGRvflAniu-1" vertex="1">
          <mxGeometry x="30" width="60" height="30" as="geometry" />
        </mxCell>
        <mxCell id="dnQoGHi0yteGRvflAniu-5" value="&lt;div style=&quot;font-size: medium; text-align: start; background-color: transparent; font-family: sans-serif;&quot;&gt;The Matrix&lt;/div&gt;" style="text;html=1;align=center;verticalAlign=middle;whiteSpace=wrap;rounded=0;" parent="dnQoGHi0yteGRvflAniu-1" vertex="1">
          <mxGeometry y="35" width="120" height="30" as="geometry" />
        </mxCell>
        <mxCell id="dnQoGHi0yteGRvflAniu-6" value="" style="group" parent="1" vertex="1" connectable="0">
          <mxGeometry x="120" y="140" width="120" height="65" as="geometry" />
        </mxCell>
        <mxCell id="dnQoGHi0yteGRvflAniu-7" value="" style="rounded=0;whiteSpace=wrap;html=1;fillColor=none;" parent="dnQoGHi0yteGRvflAniu-6" vertex="1">
          <mxGeometry y="5" width="120" height="60" as="geometry" />
        </mxCell>
        <mxCell id="dnQoGHi0yteGRvflAniu-8" value="" style="rounded=0;whiteSpace=wrap;html=1;fillColor=none;" parent="dnQoGHi0yteGRvflAniu-6" vertex="1">
          <mxGeometry x="40" y="5" width="40" height="20" as="geometry" />
        </mxCell>
        <mxCell id="dnQoGHi0yteGRvflAniu-9" value="2" style="text;html=1;align=center;verticalAlign=middle;whiteSpace=wrap;rounded=0;" parent="dnQoGHi0yteGRvflAniu-6" vertex="1">
          <mxGeometry x="30" width="60" height="30" as="geometry" />
        </mxCell>
        <mxCell id="dnQoGHi0yteGRvflAniu-10" value="&lt;div style=&quot;font-size: medium; text-align: start; background-color: transparent; font-family: sans-serif;&quot;&gt;&lt;div style=&quot;background-color: transparent;&quot;&gt;Inception&lt;/div&gt;&lt;/div&gt;" style="text;html=1;align=center;verticalAlign=middle;whiteSpace=wrap;rounded=0;" parent="dnQoGHi0yteGRvflAniu-6" vertex="1">
          <mxGeometry y="35" width="120" height="30" as="geometry" />
        </mxCell>
        <mxCell id="dnQoGHi0yteGRvflAniu-11" value="" style="group" parent="1" vertex="1" connectable="0">
          <mxGeometry x="120" y="240" width="120" height="65" as="geometry" />
        </mxCell>
        <mxCell id="dnQoGHi0yteGRvflAniu-12" value="" style="rounded=0;whiteSpace=wrap;html=1;fillColor=none;" parent="dnQoGHi0yteGRvflAniu-11" vertex="1">
          <mxGeometry y="5" width="120" height="60" as="geometry" />
        </mxCell>
        <mxCell id="dnQoGHi0yteGRvflAniu-13" value="" style="rounded=0;whiteSpace=wrap;html=1;fillColor=none;" parent="dnQoGHi0yteGRvflAniu-11" vertex="1">
          <mxGeometry x="40" y="5" width="40" height="20" as="geometry" />
        </mxCell>
        <mxCell id="dnQoGHi0yteGRvflAniu-14" value="3" style="text;html=1;align=center;verticalAlign=middle;whiteSpace=wrap;rounded=0;" parent="dnQoGHi0yteGRvflAniu-11" vertex="1">
          <mxGeometry x="30" width="60" height="30" as="geometry" />
        </mxCell>
        <mxCell id="dnQoGHi0yteGRvflAniu-15" value="&#xa;&lt;div style=&quot;color: black; background-color: transparent; font-family: sans-serif;&quot;&gt;The Shawshank Redemption &lt;/div&gt;&#xa;&#xa;" style="text;html=1;align=center;verticalAlign=middle;whiteSpace=wrap;rounded=0;" parent="dnQoGHi0yteGRvflAniu-11" vertex="1">
          <mxGeometry y="35" width="120" height="30" as="geometry" />
        </mxCell>
        <mxCell id="dnQoGHi0yteGRvflAniu-16" value="" style="group" parent="1" vertex="1" connectable="0">
          <mxGeometry x="120" y="340" width="120" height="65" as="geometry" />
        </mxCell>
        <mxCell id="dnQoGHi0yteGRvflAniu-17" value="" style="rounded=0;whiteSpace=wrap;html=1;fillColor=none;" parent="dnQoGHi0yteGRvflAniu-16" vertex="1">
          <mxGeometry y="5" width="120" height="60" as="geometry" />
        </mxCell>
        <mxCell id="dnQoGHi0yteGRvflAniu-18" value="" style="rounded=0;whiteSpace=wrap;html=1;fillColor=none;" parent="dnQoGHi0yteGRvflAniu-16" vertex="1">
          <mxGeometry x="40" y="5" width="40" height="20" as="geometry" />
        </mxCell>
        <mxCell id="dnQoGHi0yteGRvflAniu-19" value="4" style="text;html=1;align=center;verticalAlign=middle;whiteSpace=wrap;rounded=0;" parent="dnQoGHi0yteGRvflAniu-16" vertex="1">
          <mxGeometry x="30" width="60" height="30" as="geometry" />
        </mxCell>
        <mxCell id="dnQoGHi0yteGRvflAniu-20" value="&lt;div style=&quot;font-size: medium; text-align: start; background-color: transparent; font-family: sans-serif;&quot;&gt;&lt;div style=&quot;background-color: transparent;&quot;&gt;Pulp Fiction&lt;/div&gt;&lt;/div&gt;" style="text;html=1;align=center;verticalAlign=middle;whiteSpace=wrap;rounded=0;" parent="dnQoGHi0yteGRvflAniu-16" vertex="1">
          <mxGeometry y="35" width="120" height="30" as="geometry" />
        </mxCell>
        <mxCell id="dnQoGHi0yteGRvflAniu-21" value="" style="group" parent="1" vertex="1" connectable="0">
          <mxGeometry x="120" y="740" width="120" height="65" as="geometry" />
        </mxCell>
        <mxCell id="dnQoGHi0yteGRvflAniu-22" value="" style="rounded=0;whiteSpace=wrap;html=1;fillColor=none;" parent="dnQoGHi0yteGRvflAniu-21" vertex="1">
          <mxGeometry y="5" width="120" height="60" as="geometry" />
        </mxCell>
        <mxCell id="dnQoGHi0yteGRvflAniu-23" value="" style="rounded=0;whiteSpace=wrap;html=1;fillColor=none;" parent="dnQoGHi0yteGRvflAniu-21" vertex="1">
          <mxGeometry x="40" y="5" width="40" height="20" as="geometry" />
        </mxCell>
        <mxCell id="dnQoGHi0yteGRvflAniu-24" value="8" style="text;html=1;align=center;verticalAlign=middle;whiteSpace=wrap;rounded=0;" parent="dnQoGHi0yteGRvflAniu-21" vertex="1">
          <mxGeometry x="30" width="60" height="30" as="geometry" />
        </mxCell>
        <mxCell id="dnQoGHi0yteGRvflAniu-25" value="&lt;div style=&quot;text-align: start; background-color: transparent;&quot;&gt;&lt;div style=&quot;background-color: transparent;&quot;&gt;&lt;font style=&quot;font-size: 16px;&quot;&gt;Snatch&lt;/font&gt;&lt;/div&gt;&lt;/div&gt;" style="text;html=1;align=center;verticalAlign=middle;whiteSpace=wrap;rounded=0;" parent="dnQoGHi0yteGRvflAniu-21" vertex="1">
          <mxGeometry y="35" width="120" height="30" as="geometry" />
        </mxCell>
        <mxCell id="dnQoGHi0yteGRvflAniu-26" value="" style="group" parent="1" vertex="1" connectable="0">
          <mxGeometry x="120" y="640" width="120" height="65" as="geometry" />
        </mxCell>
        <mxCell id="dnQoGHi0yteGRvflAniu-27" value="" style="rounded=0;whiteSpace=wrap;html=1;fillColor=none;" parent="dnQoGHi0yteGRvflAniu-26" vertex="1">
          <mxGeometry y="5" width="120" height="60" as="geometry" />
        </mxCell>
        <mxCell id="dnQoGHi0yteGRvflAniu-28" value="" style="rounded=0;whiteSpace=wrap;html=1;fillColor=none;" parent="dnQoGHi0yteGRvflAniu-26" vertex="1">
          <mxGeometry x="40" y="5" width="40" height="20" as="geometry" />
        </mxCell>
        <mxCell id="dnQoGHi0yteGRvflAniu-29" value="7" style="text;html=1;align=center;verticalAlign=middle;whiteSpace=wrap;rounded=0;" parent="dnQoGHi0yteGRvflAniu-26" vertex="1">
          <mxGeometry x="30" width="60" height="30" as="geometry" />
        </mxCell>
        <mxCell id="dnQoGHi0yteGRvflAniu-30" value="&lt;div style=&quot;font-size: medium; text-align: start; background-color: transparent; font-family: sans-serif;&quot;&gt;&lt;div style=&quot;background-color: transparent;&quot;&gt;Fight Club&amp;nbsp;&lt;/div&gt;&lt;/div&gt;" style="text;html=1;align=center;verticalAlign=middle;whiteSpace=wrap;rounded=0;" parent="dnQoGHi0yteGRvflAniu-26" vertex="1">
          <mxGeometry y="35" width="120" height="30" as="geometry" />
        </mxCell>
        <mxCell id="dnQoGHi0yteGRvflAniu-31" value="" style="group" parent="1" vertex="1" connectable="0">
          <mxGeometry x="120" y="540" width="120" height="65" as="geometry" />
        </mxCell>
        <mxCell id="dnQoGHi0yteGRvflAniu-32" value="" style="rounded=0;whiteSpace=wrap;html=1;fillColor=none;" parent="dnQoGHi0yteGRvflAniu-31" vertex="1">
          <mxGeometry y="5" width="120" height="60" as="geometry" />
        </mxCell>
        <mxCell id="dnQoGHi0yteGRvflAniu-33" value="" style="rounded=0;whiteSpace=wrap;html=1;fillColor=none;" parent="dnQoGHi0yteGRvflAniu-31" vertex="1">
          <mxGeometry x="40" y="5" width="40" height="20" as="geometry" />
        </mxCell>
        <mxCell id="dnQoGHi0yteGRvflAniu-34" value="6" style="text;html=1;align=center;verticalAlign=middle;whiteSpace=wrap;rounded=0;" parent="dnQoGHi0yteGRvflAniu-31" vertex="1">
          <mxGeometry x="30" width="60" height="30" as="geometry" />
        </mxCell>
        <mxCell id="dnQoGHi0yteGRvflAniu-35" value="&lt;div style=&quot;font-size: medium; text-align: start; background-color: transparent; font-family: sans-serif;&quot;&gt;&lt;div style=&quot;background-color: transparent;&quot;&gt;Forrest Gump&lt;/div&gt;&lt;/div&gt;" style="text;html=1;align=center;verticalAlign=middle;whiteSpace=wrap;rounded=0;" parent="dnQoGHi0yteGRvflAniu-31" vertex="1">
          <mxGeometry y="35" width="120" height="30" as="geometry" />
        </mxCell>
        <mxCell id="dnQoGHi0yteGRvflAniu-36" value="" style="group" parent="1" vertex="1" connectable="0">
          <mxGeometry x="120" y="440" width="120" height="65" as="geometry" />
        </mxCell>
        <mxCell id="dnQoGHi0yteGRvflAniu-37" value="" style="rounded=0;whiteSpace=wrap;html=1;fillColor=none;" parent="dnQoGHi0yteGRvflAniu-36" vertex="1">
          <mxGeometry y="5" width="120" height="60" as="geometry" />
        </mxCell>
        <mxCell id="dnQoGHi0yteGRvflAniu-38" value="" style="rounded=0;whiteSpace=wrap;html=1;fillColor=none;" parent="dnQoGHi0yteGRvflAniu-36" vertex="1">
          <mxGeometry x="40" y="5" width="40" height="20" as="geometry" />
        </mxCell>
        <mxCell id="dnQoGHi0yteGRvflAniu-39" value="5" style="text;html=1;align=center;verticalAlign=middle;whiteSpace=wrap;rounded=0;" parent="dnQoGHi0yteGRvflAniu-36" vertex="1">
          <mxGeometry x="30" width="60" height="30" as="geometry" />
        </mxCell>
        <mxCell id="dnQoGHi0yteGRvflAniu-40" value="&lt;div style=&quot;font-size: medium; text-align: start; background-color: transparent; font-family: sans-serif;&quot;&gt;&lt;div style=&quot;background-color: transparent;&quot;&gt;The Dark Knight&lt;/div&gt;&lt;/div&gt;" style="text;html=1;align=center;verticalAlign=middle;whiteSpace=wrap;rounded=0;" parent="dnQoGHi0yteGRvflAniu-36" vertex="1">
          <mxGeometry y="35" width="120" height="30" as="geometry" />
        </mxCell>
        <mxCell id="dnQoGHi0yteGRvflAniu-41" value="" style="group" parent="1" vertex="1" connectable="0">
          <mxGeometry x="120" y="940" width="120" height="65" as="geometry" />
        </mxCell>
        <mxCell id="dnQoGHi0yteGRvflAniu-42" value="" style="rounded=0;whiteSpace=wrap;html=1;fillColor=none;" parent="dnQoGHi0yteGRvflAniu-41" vertex="1">
          <mxGeometry y="5" width="120" height="60" as="geometry" />
        </mxCell>
        <mxCell id="dnQoGHi0yteGRvflAniu-43" value="" style="rounded=0;whiteSpace=wrap;html=1;fillColor=none;" parent="dnQoGHi0yteGRvflAniu-41" vertex="1">
          <mxGeometry x="40" y="5" width="40" height="20" as="geometry" />
        </mxCell>
        <mxCell id="dnQoGHi0yteGRvflAniu-44" value="10" style="text;html=1;align=center;verticalAlign=middle;whiteSpace=wrap;rounded=0;" parent="dnQoGHi0yteGRvflAniu-41" vertex="1">
          <mxGeometry x="30" width="60" height="30" as="geometry" />
        </mxCell>
        <mxCell id="dnQoGHi0yteGRvflAniu-45" value="&lt;div style=&quot;font-size: medium; text-align: start; background-color: transparent; font-family: sans-serif;&quot;&gt;The Big Short&lt;/div&gt;" style="text;html=1;align=center;verticalAlign=middle;whiteSpace=wrap;rounded=0;" parent="dnQoGHi0yteGRvflAniu-41" vertex="1">
          <mxGeometry y="35" width="120" height="30" as="geometry" />
        </mxCell>
        <mxCell id="dnQoGHi0yteGRvflAniu-46" value="" style="group" parent="1" vertex="1" connectable="0">
          <mxGeometry x="120" y="840" width="120" height="65" as="geometry" />
        </mxCell>
        <mxCell id="dnQoGHi0yteGRvflAniu-47" value="" style="rounded=0;whiteSpace=wrap;html=1;fillColor=none;" parent="dnQoGHi0yteGRvflAniu-46" vertex="1">
          <mxGeometry y="5" width="120" height="60" as="geometry" />
        </mxCell>
        <mxCell id="dnQoGHi0yteGRvflAniu-48" value="" style="rounded=0;whiteSpace=wrap;html=1;fillColor=none;" parent="dnQoGHi0yteGRvflAniu-46" vertex="1">
          <mxGeometry x="40" y="5" width="40" height="20" as="geometry" />
        </mxCell>
        <mxCell id="dnQoGHi0yteGRvflAniu-49" value="9" style="text;html=1;align=center;verticalAlign=middle;whiteSpace=wrap;rounded=0;" parent="dnQoGHi0yteGRvflAniu-46" vertex="1">
          <mxGeometry x="30" width="60" height="30" as="geometry" />
        </mxCell>
        <mxCell id="dnQoGHi0yteGRvflAniu-50" value="&lt;div style=&quot;font-size: medium; text-align: start; background-color: transparent; font-family: sans-serif;&quot;&gt;Shrek&lt;/div&gt;" style="text;html=1;align=center;verticalAlign=middle;whiteSpace=wrap;rounded=0;" parent="dnQoGHi0yteGRvflAniu-46" vertex="1">
          <mxGeometry y="35" width="120" height="30" as="geometry" />
        </mxCell>
        <mxCell id="dnQoGHi0yteGRvflAniu-55" value="" style="group" parent="1" vertex="1" connectable="0">
          <mxGeometry x="460" y="40" width="120" height="80" as="geometry" />
        </mxCell>
        <mxCell id="dnQoGHi0yteGRvflAniu-51" value="" style="shape=hexagon;perimeter=hexagonPerimeter2;whiteSpace=wrap;html=1;fixedSize=1;fillColor=none;" parent="dnQoGHi0yteGRvflAniu-55" vertex="1">
          <mxGeometry width="120" height="80" as="geometry" />
        </mxCell>
        <mxCell id="dnQoGHi0yteGRvflAniu-52" value="" style="shape=hexagon;perimeter=hexagonPerimeter2;whiteSpace=wrap;html=1;fixedSize=1;fillColor=none;size=10;" parent="dnQoGHi0yteGRvflAniu-55" vertex="1">
          <mxGeometry x="37.5" width="45" height="30" as="geometry" />
        </mxCell>
        <mxCell id="dnQoGHi0yteGRvflAniu-53" value="1" style="text;html=1;align=center;verticalAlign=middle;whiteSpace=wrap;rounded=0;" parent="dnQoGHi0yteGRvflAniu-55" vertex="1">
          <mxGeometry x="30" width="60" height="30" as="geometry" />
        </mxCell>
        <mxCell id="dnQoGHi0yteGRvflAniu-54" value="&lt;div style=&quot;font-size: medium; text-align: start; background-color: transparent; font-family: sans-serif;&quot;&gt;Keanu Reeves&lt;/div&gt;" style="text;html=1;align=center;verticalAlign=middle;whiteSpace=wrap;rounded=0;" parent="dnQoGHi0yteGRvflAniu-55" vertex="1">
          <mxGeometry y="30" width="120" height="30" as="geometry" />
        </mxCell>
        <mxCell id="dnQoGHi0yteGRvflAniu-66" value="" style="group" parent="1" vertex="1" connectable="0">
          <mxGeometry x="460" y="140" width="150" height="80" as="geometry" />
        </mxCell>
        <mxCell id="dnQoGHi0yteGRvflAniu-67" value="" style="shape=hexagon;perimeter=hexagonPerimeter2;whiteSpace=wrap;html=1;fixedSize=1;fillColor=none;" parent="dnQoGHi0yteGRvflAniu-66" vertex="1">
          <mxGeometry width="150" height="80" as="geometry" />
        </mxCell>
        <mxCell id="dnQoGHi0yteGRvflAniu-68" value="" style="shape=hexagon;perimeter=hexagonPerimeter2;whiteSpace=wrap;html=1;fixedSize=1;fillColor=none;size=10;" parent="dnQoGHi0yteGRvflAniu-66" vertex="1">
          <mxGeometry x="46.875" width="56.25" height="30" as="geometry" />
        </mxCell>
        <mxCell id="dnQoGHi0yteGRvflAniu-69" value="2" style="text;html=1;align=center;verticalAlign=middle;whiteSpace=wrap;rounded=0;" parent="dnQoGHi0yteGRvflAniu-66" vertex="1">
          <mxGeometry x="37.5" width="75" height="30" as="geometry" />
        </mxCell>
        <mxCell id="dnQoGHi0yteGRvflAniu-70" value="&lt;div style=&quot;font-size: medium; text-align: start; background-color: transparent; font-family: sans-serif;&quot;&gt;&lt;div style=&quot;background-color: transparent;&quot;&gt;Leonardo DiCaprio&lt;/div&gt;&lt;/div&gt;" style="text;html=1;align=center;verticalAlign=middle;whiteSpace=wrap;rounded=0;" parent="dnQoGHi0yteGRvflAniu-66" vertex="1">
          <mxGeometry y="30" width="150" height="30" as="geometry" />
        </mxCell>
        <mxCell id="dnQoGHi0yteGRvflAniu-71" value="" style="group" parent="1" vertex="1" connectable="0">
          <mxGeometry x="460" y="240" width="140" height="80" as="geometry" />
        </mxCell>
        <mxCell id="dnQoGHi0yteGRvflAniu-72" value="" style="shape=hexagon;perimeter=hexagonPerimeter2;whiteSpace=wrap;html=1;fixedSize=1;fillColor=none;" parent="dnQoGHi0yteGRvflAniu-71" vertex="1">
          <mxGeometry width="140" height="80" as="geometry" />
        </mxCell>
        <mxCell id="dnQoGHi0yteGRvflAniu-73" value="" style="shape=hexagon;perimeter=hexagonPerimeter2;whiteSpace=wrap;html=1;fixedSize=1;fillColor=none;size=10;" parent="dnQoGHi0yteGRvflAniu-71" vertex="1">
          <mxGeometry x="37.5" width="45" height="30" as="geometry" />
        </mxCell>
        <mxCell id="dnQoGHi0yteGRvflAniu-74" value="3" style="text;html=1;align=center;verticalAlign=middle;whiteSpace=wrap;rounded=0;" parent="dnQoGHi0yteGRvflAniu-71" vertex="1">
          <mxGeometry x="30" width="60" height="30" as="geometry" />
        </mxCell>
        <mxCell id="dnQoGHi0yteGRvflAniu-75" value="&lt;div style=&quot;font-size: medium; text-align: start; background-color: transparent; font-family: sans-serif;&quot;&gt;&lt;div style=&quot;background-color: transparent;&quot;&gt;Morgan Freeman&lt;/div&gt;&lt;/div&gt;" style="text;html=1;align=center;verticalAlign=middle;whiteSpace=wrap;rounded=0;" parent="dnQoGHi0yteGRvflAniu-71" vertex="1">
          <mxGeometry y="30" width="140" height="30" as="geometry" />
        </mxCell>
        <mxCell id="dnQoGHi0yteGRvflAniu-76" value="" style="group" parent="1" vertex="1" connectable="0">
          <mxGeometry x="460" y="340" width="120" height="80" as="geometry" />
        </mxCell>
        <mxCell id="dnQoGHi0yteGRvflAniu-77" value="" style="shape=hexagon;perimeter=hexagonPerimeter2;whiteSpace=wrap;html=1;fixedSize=1;fillColor=none;" parent="dnQoGHi0yteGRvflAniu-76" vertex="1">
          <mxGeometry width="120" height="80" as="geometry" />
        </mxCell>
        <mxCell id="dnQoGHi0yteGRvflAniu-78" value="" style="shape=hexagon;perimeter=hexagonPerimeter2;whiteSpace=wrap;html=1;fixedSize=1;fillColor=none;size=10;" parent="dnQoGHi0yteGRvflAniu-76" vertex="1">
          <mxGeometry x="37.5" width="45" height="30" as="geometry" />
        </mxCell>
        <mxCell id="dnQoGHi0yteGRvflAniu-79" value="4" style="text;html=1;align=center;verticalAlign=middle;whiteSpace=wrap;rounded=0;" parent="dnQoGHi0yteGRvflAniu-76" vertex="1">
          <mxGeometry x="30" width="60" height="30" as="geometry" />
        </mxCell>
        <mxCell id="dnQoGHi0yteGRvflAniu-80" value="&lt;div style=&quot;font-size: medium; text-align: start; background-color: transparent; font-family: sans-serif;&quot;&gt;&lt;div style=&quot;background-color: transparent;&quot;&gt;&lt;div style=&quot;background-color: transparent;&quot;&gt;&lt;div style=&quot;background-color: transparent;&quot;&gt;&lt;div style=&quot;background-color: transparent;&quot;&gt;John Travolta&lt;/div&gt;&lt;/div&gt;&lt;/div&gt;&lt;/div&gt;&lt;/div&gt;" style="text;html=1;align=center;verticalAlign=middle;whiteSpace=wrap;rounded=0;" parent="dnQoGHi0yteGRvflAniu-76" vertex="1">
          <mxGeometry y="30" width="120" height="30" as="geometry" />
        </mxCell>
        <mxCell id="dnQoGHi0yteGRvflAniu-81" value="" style="group" parent="1" vertex="1" connectable="0">
          <mxGeometry x="460" y="840" width="120" height="80" as="geometry" />
        </mxCell>
        <mxCell id="dnQoGHi0yteGRvflAniu-82" value="" style="shape=hexagon;perimeter=hexagonPerimeter2;whiteSpace=wrap;html=1;fixedSize=1;fillColor=none;" parent="dnQoGHi0yteGRvflAniu-81" vertex="1">
          <mxGeometry width="120" height="80" as="geometry" />
        </mxCell>
        <mxCell id="dnQoGHi0yteGRvflAniu-83" value="" style="shape=hexagon;perimeter=hexagonPerimeter2;whiteSpace=wrap;html=1;fixedSize=1;fillColor=none;size=10;" parent="dnQoGHi0yteGRvflAniu-81" vertex="1">
          <mxGeometry x="37.5" width="45" height="30" as="geometry" />
        </mxCell>
        <mxCell id="dnQoGHi0yteGRvflAniu-84" value="9" style="text;html=1;align=center;verticalAlign=middle;whiteSpace=wrap;rounded=0;" parent="dnQoGHi0yteGRvflAniu-81" vertex="1">
          <mxGeometry x="30" width="60" height="30" as="geometry" />
        </mxCell>
        <mxCell id="dnQoGHi0yteGRvflAniu-85" value="&lt;div style=&quot;font-size: medium; text-align: start; background-color: transparent; font-family: sans-serif;&quot;&gt;Jason Statham&lt;/div&gt;" style="text;html=1;align=center;verticalAlign=middle;whiteSpace=wrap;rounded=0;" parent="dnQoGHi0yteGRvflAniu-81" vertex="1">
          <mxGeometry y="30" width="120" height="30" as="geometry" />
        </mxCell>
        <mxCell id="dnQoGHi0yteGRvflAniu-86" value="" style="group" parent="1" vertex="1" connectable="0">
          <mxGeometry x="460" y="940" width="120" height="80" as="geometry" />
        </mxCell>
        <mxCell id="dnQoGHi0yteGRvflAniu-87" value="" style="shape=hexagon;perimeter=hexagonPerimeter2;whiteSpace=wrap;html=1;fixedSize=1;fillColor=none;" parent="dnQoGHi0yteGRvflAniu-86" vertex="1">
          <mxGeometry width="120" height="80" as="geometry" />
        </mxCell>
        <mxCell id="dnQoGHi0yteGRvflAniu-88" value="" style="shape=hexagon;perimeter=hexagonPerimeter2;whiteSpace=wrap;html=1;fixedSize=1;fillColor=none;size=10;" parent="dnQoGHi0yteGRvflAniu-86" vertex="1">
          <mxGeometry x="37.5" width="45" height="30" as="geometry" />
        </mxCell>
        <mxCell id="dnQoGHi0yteGRvflAniu-89" value="10" style="text;html=1;align=center;verticalAlign=middle;whiteSpace=wrap;rounded=0;" parent="dnQoGHi0yteGRvflAniu-86" vertex="1">
          <mxGeometry x="30" width="60" height="30" as="geometry" />
        </mxCell>
        <mxCell id="dnQoGHi0yteGRvflAniu-90" value="&lt;div style=&quot;font-size: medium; text-align: start; background-color: transparent; font-family: sans-serif;&quot;&gt;Ryan Gosling&lt;/div&gt;" style="text;html=1;align=center;verticalAlign=middle;whiteSpace=wrap;rounded=0;" parent="dnQoGHi0yteGRvflAniu-86" vertex="1">
          <mxGeometry y="30" width="120" height="30" as="geometry" />
        </mxCell>
        <mxCell id="dnQoGHi0yteGRvflAniu-91" value="" style="group" parent="1" vertex="1" connectable="0">
          <mxGeometry x="460" y="640" width="120" height="80" as="geometry" />
        </mxCell>
        <mxCell id="dnQoGHi0yteGRvflAniu-92" value="" style="shape=hexagon;perimeter=hexagonPerimeter2;whiteSpace=wrap;html=1;fixedSize=1;fillColor=none;" parent="dnQoGHi0yteGRvflAniu-91" vertex="1">
          <mxGeometry width="120" height="80" as="geometry" />
        </mxCell>
        <mxCell id="dnQoGHi0yteGRvflAniu-93" value="" style="shape=hexagon;perimeter=hexagonPerimeter2;whiteSpace=wrap;html=1;fixedSize=1;fillColor=none;size=10;" parent="dnQoGHi0yteGRvflAniu-91" vertex="1">
          <mxGeometry x="37.5" width="45" height="30" as="geometry" />
        </mxCell>
        <mxCell id="dnQoGHi0yteGRvflAniu-94" value="7" style="text;html=1;align=center;verticalAlign=middle;whiteSpace=wrap;rounded=0;" parent="dnQoGHi0yteGRvflAniu-91" vertex="1">
          <mxGeometry x="30" width="60" height="30" as="geometry" />
        </mxCell>
        <mxCell id="dnQoGHi0yteGRvflAniu-95" value="&lt;div style=&quot;font-size: medium; text-align: start; background-color: transparent; font-family: sans-serif;&quot;&gt;&lt;div style=&quot;background-color: transparent;&quot;&gt;Brad Pitt&lt;/div&gt;&lt;/div&gt;" style="text;html=1;align=center;verticalAlign=middle;whiteSpace=wrap;rounded=0;" parent="dnQoGHi0yteGRvflAniu-91" vertex="1">
          <mxGeometry y="30" width="120" height="30" as="geometry" />
        </mxCell>
        <mxCell id="dnQoGHi0yteGRvflAniu-96" value="" style="group" parent="1" vertex="1" connectable="0">
          <mxGeometry x="460" y="740" width="120" height="80" as="geometry" />
        </mxCell>
        <mxCell id="dnQoGHi0yteGRvflAniu-97" value="" style="shape=hexagon;perimeter=hexagonPerimeter2;whiteSpace=wrap;html=1;fixedSize=1;fillColor=none;" parent="dnQoGHi0yteGRvflAniu-96" vertex="1">
          <mxGeometry width="120" height="80" as="geometry" />
        </mxCell>
        <mxCell id="dnQoGHi0yteGRvflAniu-98" value="" style="shape=hexagon;perimeter=hexagonPerimeter2;whiteSpace=wrap;html=1;fixedSize=1;fillColor=none;size=10;" parent="dnQoGHi0yteGRvflAniu-96" vertex="1">
          <mxGeometry x="37.5" width="45" height="30" as="geometry" />
        </mxCell>
        <mxCell id="dnQoGHi0yteGRvflAniu-99" value="8" style="text;html=1;align=center;verticalAlign=middle;whiteSpace=wrap;rounded=0;" parent="dnQoGHi0yteGRvflAniu-96" vertex="1">
          <mxGeometry x="30" width="60" height="30" as="geometry" />
        </mxCell>
        <mxCell id="XzTSQByXAmbuPEVBdO9h-18" value="&lt;font style=&quot;font-size: 16px;&quot;&gt;Mike Myers&lt;/font&gt;" style="text;html=1;align=center;verticalAlign=middle;whiteSpace=wrap;rounded=0;" parent="dnQoGHi0yteGRvflAniu-96" vertex="1">
          <mxGeometry y="30" width="120" height="30" as="geometry" />
        </mxCell>
        <mxCell id="dnQoGHi0yteGRvflAniu-101" value="" style="group" parent="1" vertex="1" connectable="0">
          <mxGeometry x="460" y="440" width="120" height="80" as="geometry" />
        </mxCell>
        <mxCell id="dnQoGHi0yteGRvflAniu-102" value="" style="shape=hexagon;perimeter=hexagonPerimeter2;whiteSpace=wrap;html=1;fixedSize=1;fillColor=none;" parent="dnQoGHi0yteGRvflAniu-101" vertex="1">
          <mxGeometry width="120" height="80" as="geometry" />
        </mxCell>
        <mxCell id="dnQoGHi0yteGRvflAniu-103" value="" style="shape=hexagon;perimeter=hexagonPerimeter2;whiteSpace=wrap;html=1;fixedSize=1;fillColor=none;size=10;" parent="dnQoGHi0yteGRvflAniu-101" vertex="1">
          <mxGeometry x="37.5" width="45" height="30" as="geometry" />
        </mxCell>
        <mxCell id="dnQoGHi0yteGRvflAniu-104" value="5" style="text;html=1;align=center;verticalAlign=middle;whiteSpace=wrap;rounded=0;" parent="dnQoGHi0yteGRvflAniu-101" vertex="1">
          <mxGeometry x="30" width="60" height="30" as="geometry" />
        </mxCell>
        <mxCell id="dnQoGHi0yteGRvflAniu-105" value="&lt;div style=&quot;font-size: medium; text-align: start; background-color: transparent; font-family: sans-serif;&quot;&gt;&lt;div style=&quot;background-color: transparent;&quot;&gt;&lt;div style=&quot;background-color: transparent;&quot;&gt;Christian Bale&lt;/div&gt;&lt;/div&gt;&lt;/div&gt;" style="text;html=1;align=center;verticalAlign=middle;whiteSpace=wrap;rounded=0;" parent="dnQoGHi0yteGRvflAniu-101" vertex="1">
          <mxGeometry y="30" width="120" height="30" as="geometry" />
        </mxCell>
        <mxCell id="dnQoGHi0yteGRvflAniu-106" value="" style="group" parent="1" vertex="1" connectable="0">
          <mxGeometry x="460" y="540" width="120" height="80" as="geometry" />
        </mxCell>
        <mxCell id="dnQoGHi0yteGRvflAniu-107" value="" style="shape=hexagon;perimeter=hexagonPerimeter2;whiteSpace=wrap;html=1;fixedSize=1;fillColor=none;" parent="dnQoGHi0yteGRvflAniu-106" vertex="1">
          <mxGeometry width="120" height="80" as="geometry" />
        </mxCell>
        <mxCell id="dnQoGHi0yteGRvflAniu-108" value="" style="shape=hexagon;perimeter=hexagonPerimeter2;whiteSpace=wrap;html=1;fixedSize=1;fillColor=none;size=10;" parent="dnQoGHi0yteGRvflAniu-106" vertex="1">
          <mxGeometry x="37.5" width="45" height="30" as="geometry" />
        </mxCell>
        <mxCell id="dnQoGHi0yteGRvflAniu-109" value="6" style="text;html=1;align=center;verticalAlign=middle;whiteSpace=wrap;rounded=0;" parent="dnQoGHi0yteGRvflAniu-106" vertex="1">
          <mxGeometry x="30" width="60" height="30" as="geometry" />
        </mxCell>
        <mxCell id="dnQoGHi0yteGRvflAniu-110" value="&lt;div style=&quot;font-size: medium; text-align: start; background-color: transparent; font-family: sans-serif;&quot;&gt;&lt;div style=&quot;background-color: transparent;&quot;&gt;&lt;div style=&quot;background-color: transparent;&quot;&gt;Tom Hanks&lt;/div&gt;&lt;/div&gt;&lt;/div&gt;" style="text;html=1;align=center;verticalAlign=middle;whiteSpace=wrap;rounded=0;" parent="dnQoGHi0yteGRvflAniu-106" vertex="1">
          <mxGeometry y="30" width="120" height="30" as="geometry" />
        </mxCell>
        <mxCell id="RvFiJ3Qq6lb3XEpawRCW-1" style="edgeStyle=orthogonalEdgeStyle;rounded=0;orthogonalLoop=1;jettySize=auto;html=1;exitX=0;exitY=0.25;exitDx=0;exitDy=0;entryX=1;entryY=0.25;entryDx=0;entryDy=0;curved=1;" edge="1" parent="1" source="dnQoGHi0yteGRvflAniu-54" target="dnQoGHi0yteGRvflAniu-5">
          <mxGeometry relative="1" as="geometry" />
        </mxCell>
        <mxCell id="RvFiJ3Qq6lb3XEpawRCW-2" style="edgeStyle=orthogonalEdgeStyle;rounded=0;orthogonalLoop=1;jettySize=auto;html=1;exitX=0;exitY=0.25;exitDx=0;exitDy=0;entryX=1;entryY=0.25;entryDx=0;entryDy=0;curved=1;" edge="1" parent="1" source="dnQoGHi0yteGRvflAniu-70" target="dnQoGHi0yteGRvflAniu-10">
          <mxGeometry relative="1" as="geometry" />
        </mxCell>
        <mxCell id="RvFiJ3Qq6lb3XEpawRCW-3" style="edgeStyle=orthogonalEdgeStyle;rounded=0;orthogonalLoop=1;jettySize=auto;html=1;exitX=0;exitY=0.25;exitDx=0;exitDy=0;entryX=1;entryY=0.25;entryDx=0;entryDy=0;curved=1;" edge="1" parent="1" source="dnQoGHi0yteGRvflAniu-75" target="dnQoGHi0yteGRvflAniu-15">
          <mxGeometry relative="1" as="geometry" />
        </mxCell>
        <mxCell id="RvFiJ3Qq6lb3XEpawRCW-4" style="edgeStyle=orthogonalEdgeStyle;rounded=0;orthogonalLoop=1;jettySize=auto;html=1;exitX=0;exitY=0.25;exitDx=0;exitDy=0;entryX=1;entryY=0.25;entryDx=0;entryDy=0;curved=1;" edge="1" parent="1" source="dnQoGHi0yteGRvflAniu-80" target="dnQoGHi0yteGRvflAniu-20">
          <mxGeometry relative="1" as="geometry" />
        </mxCell>
        <mxCell id="RvFiJ3Qq6lb3XEpawRCW-5" style="edgeStyle=orthogonalEdgeStyle;rounded=0;orthogonalLoop=1;jettySize=auto;html=1;exitX=0;exitY=0.25;exitDx=0;exitDy=0;entryX=1;entryY=0.25;entryDx=0;entryDy=0;curved=1;" edge="1" parent="1" source="dnQoGHi0yteGRvflAniu-105" target="dnQoGHi0yteGRvflAniu-40">
          <mxGeometry relative="1" as="geometry" />
        </mxCell>
        <mxCell id="RvFiJ3Qq6lb3XEpawRCW-6" style="edgeStyle=orthogonalEdgeStyle;rounded=0;orthogonalLoop=1;jettySize=auto;html=1;exitX=0;exitY=0.25;exitDx=0;exitDy=0;entryX=1;entryY=0.25;entryDx=0;entryDy=0;curved=1;" edge="1" parent="1" source="dnQoGHi0yteGRvflAniu-105" target="dnQoGHi0yteGRvflAniu-45">
          <mxGeometry relative="1" as="geometry">
            <Array as="points">
              <mxPoint x="350" y="478" />
              <mxPoint x="350" y="983" />
            </Array>
          </mxGeometry>
        </mxCell>
        <mxCell id="RvFiJ3Qq6lb3XEpawRCW-7" style="edgeStyle=orthogonalEdgeStyle;rounded=0;orthogonalLoop=1;jettySize=auto;html=1;exitX=0;exitY=0.25;exitDx=0;exitDy=0;entryX=1;entryY=0.25;entryDx=0;entryDy=0;curved=1;" edge="1" parent="1" source="dnQoGHi0yteGRvflAniu-110" target="dnQoGHi0yteGRvflAniu-35">
          <mxGeometry relative="1" as="geometry" />
        </mxCell>
        <mxCell id="RvFiJ3Qq6lb3XEpawRCW-8" style="edgeStyle=orthogonalEdgeStyle;rounded=0;orthogonalLoop=1;jettySize=auto;html=1;exitX=0;exitY=0.25;exitDx=0;exitDy=0;entryX=1;entryY=0.25;entryDx=0;entryDy=0;curved=1;" edge="1" parent="1" source="dnQoGHi0yteGRvflAniu-95" target="dnQoGHi0yteGRvflAniu-30">
          <mxGeometry relative="1" as="geometry" />
        </mxCell>
        <mxCell id="RvFiJ3Qq6lb3XEpawRCW-9" style="edgeStyle=orthogonalEdgeStyle;rounded=0;orthogonalLoop=1;jettySize=auto;html=1;exitX=0;exitY=0.25;exitDx=0;exitDy=0;entryX=1;entryY=0.25;entryDx=0;entryDy=0;curved=1;" edge="1" parent="1" source="dnQoGHi0yteGRvflAniu-95" target="dnQoGHi0yteGRvflAniu-25">
          <mxGeometry relative="1" as="geometry">
            <Array as="points">
              <mxPoint x="310" y="678" />
              <mxPoint x="310" y="783" />
            </Array>
          </mxGeometry>
        </mxCell>
        <mxCell id="RvFiJ3Qq6lb3XEpawRCW-10" style="edgeStyle=orthogonalEdgeStyle;rounded=0;orthogonalLoop=1;jettySize=auto;html=1;exitX=0;exitY=0.25;exitDx=0;exitDy=0;entryX=1;entryY=0.5;entryDx=0;entryDy=0;curved=1;" edge="1" parent="1" source="dnQoGHi0yteGRvflAniu-95" target="dnQoGHi0yteGRvflAniu-45">
          <mxGeometry relative="1" as="geometry">
            <Array as="points">
              <mxPoint x="390" y="678" />
              <mxPoint x="390" y="990" />
            </Array>
          </mxGeometry>
        </mxCell>
        <mxCell id="RvFiJ3Qq6lb3XEpawRCW-14" style="edgeStyle=orthogonalEdgeStyle;rounded=0;orthogonalLoop=1;jettySize=auto;html=1;exitX=0;exitY=0.25;exitDx=0;exitDy=0;entryX=1;entryY=0.25;entryDx=0;entryDy=0;curved=1;" edge="1" parent="1" source="XzTSQByXAmbuPEVBdO9h-18" target="dnQoGHi0yteGRvflAniu-47">
          <mxGeometry relative="1" as="geometry">
            <Array as="points">
              <mxPoint x="380" y="778" />
              <mxPoint x="380" y="860" />
            </Array>
          </mxGeometry>
        </mxCell>
        <mxCell id="RvFiJ3Qq6lb3XEpawRCW-16" style="edgeStyle=orthogonalEdgeStyle;rounded=0;orthogonalLoop=1;jettySize=auto;html=1;exitX=0;exitY=0.25;exitDx=0;exitDy=0;entryX=1;entryY=0.75;entryDx=0;entryDy=0;curved=1;" edge="1" parent="1" source="dnQoGHi0yteGRvflAniu-85" target="dnQoGHi0yteGRvflAniu-22">
          <mxGeometry relative="1" as="geometry">
            <Array as="points">
              <mxPoint x="320" y="878" />
              <mxPoint x="320" y="790" />
            </Array>
          </mxGeometry>
        </mxCell>
        <mxCell id="RvFiJ3Qq6lb3XEpawRCW-19" style="edgeStyle=orthogonalEdgeStyle;rounded=0;orthogonalLoop=1;jettySize=auto;html=1;exitX=0;exitY=0.25;exitDx=0;exitDy=0;entryX=1;entryY=0.75;entryDx=0;entryDy=0;curved=1;" edge="1" parent="1" source="dnQoGHi0yteGRvflAniu-90" target="dnQoGHi0yteGRvflAniu-45">
          <mxGeometry relative="1" as="geometry" />
        </mxCell>
      </root>
    </mxGraphModel>
  </diagram>
  <diagram id="Rdg-GGBam3Gl2MHBl6oL" name="BelongsToGenre">
    <mxGraphModel dx="1884" dy="777" grid="1" gridSize="10" guides="1" tooltips="1" connect="1" arrows="1" fold="1" page="1" pageScale="1" pageWidth="827" pageHeight="1169" math="0" shadow="0">
      <root>
        <mxCell id="0" />
        <mxCell id="1" parent="0" />
        <mxCell id="C9t4qM2Tk1lndr6YPbpe-1" value="" style="group" parent="1" vertex="1" connectable="0">
          <mxGeometry x="120" y="40" width="120" height="65" as="geometry" />
        </mxCell>
        <mxCell id="C9t4qM2Tk1lndr6YPbpe-2" value="" style="rounded=0;whiteSpace=wrap;html=1;fillColor=none;" parent="C9t4qM2Tk1lndr6YPbpe-1" vertex="1">
          <mxGeometry y="5" width="120" height="60" as="geometry" />
        </mxCell>
        <mxCell id="C9t4qM2Tk1lndr6YPbpe-3" value="" style="rounded=0;whiteSpace=wrap;html=1;fillColor=none;" parent="C9t4qM2Tk1lndr6YPbpe-1" vertex="1">
          <mxGeometry x="40" y="5" width="40" height="20" as="geometry" />
        </mxCell>
        <mxCell id="C9t4qM2Tk1lndr6YPbpe-4" value="1" style="text;html=1;align=center;verticalAlign=middle;whiteSpace=wrap;rounded=0;" parent="C9t4qM2Tk1lndr6YPbpe-1" vertex="1">
          <mxGeometry x="30" width="60" height="30" as="geometry" />
        </mxCell>
        <mxCell id="C9t4qM2Tk1lndr6YPbpe-5" value="&lt;div style=&quot;font-size: medium; text-align: start; background-color: transparent; font-family: sans-serif;&quot;&gt;The Matrix&lt;/div&gt;" style="text;html=1;align=center;verticalAlign=middle;whiteSpace=wrap;rounded=0;" parent="C9t4qM2Tk1lndr6YPbpe-1" vertex="1">
          <mxGeometry y="35" width="120" height="30" as="geometry" />
        </mxCell>
        <mxCell id="C9t4qM2Tk1lndr6YPbpe-6" value="" style="group" parent="1" vertex="1" connectable="0">
          <mxGeometry x="120" y="140" width="120" height="65" as="geometry" />
        </mxCell>
        <mxCell id="C9t4qM2Tk1lndr6YPbpe-7" value="" style="rounded=0;whiteSpace=wrap;html=1;fillColor=none;" parent="C9t4qM2Tk1lndr6YPbpe-6" vertex="1">
          <mxGeometry y="5" width="120" height="60" as="geometry" />
        </mxCell>
        <mxCell id="C9t4qM2Tk1lndr6YPbpe-8" value="" style="rounded=0;whiteSpace=wrap;html=1;fillColor=none;" parent="C9t4qM2Tk1lndr6YPbpe-6" vertex="1">
          <mxGeometry x="40" y="5" width="40" height="20" as="geometry" />
        </mxCell>
        <mxCell id="C9t4qM2Tk1lndr6YPbpe-9" value="2" style="text;html=1;align=center;verticalAlign=middle;whiteSpace=wrap;rounded=0;" parent="C9t4qM2Tk1lndr6YPbpe-6" vertex="1">
          <mxGeometry x="30" width="60" height="30" as="geometry" />
        </mxCell>
        <mxCell id="C9t4qM2Tk1lndr6YPbpe-10" value="&lt;div style=&quot;font-size: medium; text-align: start; background-color: transparent; font-family: sans-serif;&quot;&gt;&lt;div style=&quot;background-color: transparent;&quot;&gt;Inception&lt;/div&gt;&lt;/div&gt;" style="text;html=1;align=center;verticalAlign=middle;whiteSpace=wrap;rounded=0;" parent="C9t4qM2Tk1lndr6YPbpe-6" vertex="1">
          <mxGeometry y="35" width="120" height="30" as="geometry" />
        </mxCell>
        <mxCell id="C9t4qM2Tk1lndr6YPbpe-11" value="" style="group" parent="1" vertex="1" connectable="0">
          <mxGeometry x="120" y="240" width="120" height="65" as="geometry" />
        </mxCell>
        <mxCell id="C9t4qM2Tk1lndr6YPbpe-12" value="" style="rounded=0;whiteSpace=wrap;html=1;fillColor=none;" parent="C9t4qM2Tk1lndr6YPbpe-11" vertex="1">
          <mxGeometry y="5" width="120" height="60" as="geometry" />
        </mxCell>
        <mxCell id="C9t4qM2Tk1lndr6YPbpe-13" value="" style="rounded=0;whiteSpace=wrap;html=1;fillColor=none;" parent="C9t4qM2Tk1lndr6YPbpe-11" vertex="1">
          <mxGeometry x="40" y="5" width="40" height="20" as="geometry" />
        </mxCell>
        <mxCell id="C9t4qM2Tk1lndr6YPbpe-14" value="3" style="text;html=1;align=center;verticalAlign=middle;whiteSpace=wrap;rounded=0;" parent="C9t4qM2Tk1lndr6YPbpe-11" vertex="1">
          <mxGeometry x="30" width="60" height="30" as="geometry" />
        </mxCell>
        <mxCell id="C9t4qM2Tk1lndr6YPbpe-15" value="&#xa;&lt;div style=&quot;color: black; background-color: transparent; font-family: sans-serif;&quot;&gt;The Shawshank Redemption &lt;/div&gt;&#xa;&#xa;" style="text;html=1;align=center;verticalAlign=middle;whiteSpace=wrap;rounded=0;" parent="C9t4qM2Tk1lndr6YPbpe-11" vertex="1">
          <mxGeometry y="35" width="120" height="30" as="geometry" />
        </mxCell>
        <mxCell id="C9t4qM2Tk1lndr6YPbpe-16" value="" style="group" parent="1" vertex="1" connectable="0">
          <mxGeometry x="120" y="340" width="120" height="65" as="geometry" />
        </mxCell>
        <mxCell id="C9t4qM2Tk1lndr6YPbpe-17" value="" style="rounded=0;whiteSpace=wrap;html=1;fillColor=none;" parent="C9t4qM2Tk1lndr6YPbpe-16" vertex="1">
          <mxGeometry y="5" width="120" height="60" as="geometry" />
        </mxCell>
        <mxCell id="C9t4qM2Tk1lndr6YPbpe-18" value="" style="rounded=0;whiteSpace=wrap;html=1;fillColor=none;" parent="C9t4qM2Tk1lndr6YPbpe-16" vertex="1">
          <mxGeometry x="40" y="5" width="40" height="20" as="geometry" />
        </mxCell>
        <mxCell id="C9t4qM2Tk1lndr6YPbpe-19" value="4" style="text;html=1;align=center;verticalAlign=middle;whiteSpace=wrap;rounded=0;" parent="C9t4qM2Tk1lndr6YPbpe-16" vertex="1">
          <mxGeometry x="30" width="60" height="30" as="geometry" />
        </mxCell>
        <mxCell id="C9t4qM2Tk1lndr6YPbpe-20" value="&lt;div style=&quot;font-size: medium; text-align: start; background-color: transparent; font-family: sans-serif;&quot;&gt;&lt;div style=&quot;background-color: transparent;&quot;&gt;Pulp Fiction&lt;/div&gt;&lt;/div&gt;" style="text;html=1;align=center;verticalAlign=middle;whiteSpace=wrap;rounded=0;" parent="C9t4qM2Tk1lndr6YPbpe-16" vertex="1">
          <mxGeometry y="35" width="120" height="30" as="geometry" />
        </mxCell>
        <mxCell id="C9t4qM2Tk1lndr6YPbpe-21" value="" style="group" parent="1" vertex="1" connectable="0">
          <mxGeometry x="120" y="740" width="120" height="65" as="geometry" />
        </mxCell>
        <mxCell id="C9t4qM2Tk1lndr6YPbpe-22" value="" style="rounded=0;whiteSpace=wrap;html=1;fillColor=none;" parent="C9t4qM2Tk1lndr6YPbpe-21" vertex="1">
          <mxGeometry y="5" width="120" height="60" as="geometry" />
        </mxCell>
        <mxCell id="C9t4qM2Tk1lndr6YPbpe-23" value="" style="rounded=0;whiteSpace=wrap;html=1;fillColor=none;" parent="C9t4qM2Tk1lndr6YPbpe-21" vertex="1">
          <mxGeometry x="40" y="5" width="40" height="20" as="geometry" />
        </mxCell>
        <mxCell id="C9t4qM2Tk1lndr6YPbpe-24" value="8" style="text;html=1;align=center;verticalAlign=middle;whiteSpace=wrap;rounded=0;" parent="C9t4qM2Tk1lndr6YPbpe-21" vertex="1">
          <mxGeometry x="30" width="60" height="30" as="geometry" />
        </mxCell>
        <mxCell id="C9t4qM2Tk1lndr6YPbpe-25" value="&lt;div style=&quot;font-size: medium; text-align: start; background-color: transparent; font-family: sans-serif;&quot;&gt;&lt;div style=&quot;background-color: transparent;&quot;&gt;Snatch&lt;/div&gt;&lt;/div&gt;" style="text;html=1;align=center;verticalAlign=middle;whiteSpace=wrap;rounded=0;" parent="C9t4qM2Tk1lndr6YPbpe-21" vertex="1">
          <mxGeometry y="35" width="120" height="30" as="geometry" />
        </mxCell>
        <mxCell id="C9t4qM2Tk1lndr6YPbpe-26" value="" style="group" parent="1" vertex="1" connectable="0">
          <mxGeometry x="120" y="640" width="120" height="65" as="geometry" />
        </mxCell>
        <mxCell id="C9t4qM2Tk1lndr6YPbpe-27" value="" style="rounded=0;whiteSpace=wrap;html=1;fillColor=none;" parent="C9t4qM2Tk1lndr6YPbpe-26" vertex="1">
          <mxGeometry y="5" width="120" height="60" as="geometry" />
        </mxCell>
        <mxCell id="C9t4qM2Tk1lndr6YPbpe-28" value="" style="rounded=0;whiteSpace=wrap;html=1;fillColor=none;" parent="C9t4qM2Tk1lndr6YPbpe-26" vertex="1">
          <mxGeometry x="40" y="5" width="40" height="20" as="geometry" />
        </mxCell>
        <mxCell id="C9t4qM2Tk1lndr6YPbpe-29" value="7" style="text;html=1;align=center;verticalAlign=middle;whiteSpace=wrap;rounded=0;" parent="C9t4qM2Tk1lndr6YPbpe-26" vertex="1">
          <mxGeometry x="30" width="60" height="30" as="geometry" />
        </mxCell>
        <mxCell id="C9t4qM2Tk1lndr6YPbpe-30" value="&lt;div style=&quot;font-size: medium; text-align: start; background-color: transparent; font-family: sans-serif;&quot;&gt;&lt;div style=&quot;background-color: transparent;&quot;&gt;Fight Club&amp;nbsp;&lt;/div&gt;&lt;/div&gt;" style="text;html=1;align=center;verticalAlign=middle;whiteSpace=wrap;rounded=0;" parent="C9t4qM2Tk1lndr6YPbpe-26" vertex="1">
          <mxGeometry y="35" width="120" height="30" as="geometry" />
        </mxCell>
        <mxCell id="C9t4qM2Tk1lndr6YPbpe-31" value="" style="group" parent="1" vertex="1" connectable="0">
          <mxGeometry x="120" y="540" width="120" height="65" as="geometry" />
        </mxCell>
        <mxCell id="C9t4qM2Tk1lndr6YPbpe-32" value="" style="rounded=0;whiteSpace=wrap;html=1;fillColor=none;" parent="C9t4qM2Tk1lndr6YPbpe-31" vertex="1">
          <mxGeometry y="5" width="120" height="60" as="geometry" />
        </mxCell>
        <mxCell id="C9t4qM2Tk1lndr6YPbpe-33" value="" style="rounded=0;whiteSpace=wrap;html=1;fillColor=none;" parent="C9t4qM2Tk1lndr6YPbpe-31" vertex="1">
          <mxGeometry x="40" y="5" width="40" height="20" as="geometry" />
        </mxCell>
        <mxCell id="C9t4qM2Tk1lndr6YPbpe-34" value="6" style="text;html=1;align=center;verticalAlign=middle;whiteSpace=wrap;rounded=0;" parent="C9t4qM2Tk1lndr6YPbpe-31" vertex="1">
          <mxGeometry x="30" width="60" height="30" as="geometry" />
        </mxCell>
        <mxCell id="C9t4qM2Tk1lndr6YPbpe-35" value="&lt;div style=&quot;font-size: medium; text-align: start; background-color: transparent; font-family: sans-serif;&quot;&gt;&lt;div style=&quot;background-color: transparent;&quot;&gt;Forrest Gump&lt;/div&gt;&lt;/div&gt;" style="text;html=1;align=center;verticalAlign=middle;whiteSpace=wrap;rounded=0;" parent="C9t4qM2Tk1lndr6YPbpe-31" vertex="1">
          <mxGeometry y="35" width="120" height="30" as="geometry" />
        </mxCell>
        <mxCell id="C9t4qM2Tk1lndr6YPbpe-36" value="" style="group" parent="1" vertex="1" connectable="0">
          <mxGeometry x="120" y="440" width="120" height="65" as="geometry" />
        </mxCell>
        <mxCell id="C9t4qM2Tk1lndr6YPbpe-37" value="" style="rounded=0;whiteSpace=wrap;html=1;fillColor=none;" parent="C9t4qM2Tk1lndr6YPbpe-36" vertex="1">
          <mxGeometry y="5" width="120" height="60" as="geometry" />
        </mxCell>
        <mxCell id="C9t4qM2Tk1lndr6YPbpe-38" value="" style="rounded=0;whiteSpace=wrap;html=1;fillColor=none;" parent="C9t4qM2Tk1lndr6YPbpe-36" vertex="1">
          <mxGeometry x="40" y="5" width="40" height="20" as="geometry" />
        </mxCell>
        <mxCell id="C9t4qM2Tk1lndr6YPbpe-39" value="5" style="text;html=1;align=center;verticalAlign=middle;whiteSpace=wrap;rounded=0;" parent="C9t4qM2Tk1lndr6YPbpe-36" vertex="1">
          <mxGeometry x="30" width="60" height="30" as="geometry" />
        </mxCell>
        <mxCell id="C9t4qM2Tk1lndr6YPbpe-40" value="&lt;div style=&quot;font-size: medium; text-align: start; background-color: transparent; font-family: sans-serif;&quot;&gt;&lt;div style=&quot;background-color: transparent;&quot;&gt;The Dark Knight&lt;/div&gt;&lt;/div&gt;" style="text;html=1;align=center;verticalAlign=middle;whiteSpace=wrap;rounded=0;" parent="C9t4qM2Tk1lndr6YPbpe-36" vertex="1">
          <mxGeometry y="35" width="120" height="30" as="geometry" />
        </mxCell>
        <mxCell id="C9t4qM2Tk1lndr6YPbpe-41" value="" style="group" parent="1" vertex="1" connectable="0">
          <mxGeometry x="120" y="940" width="120" height="65" as="geometry" />
        </mxCell>
        <mxCell id="C9t4qM2Tk1lndr6YPbpe-42" value="" style="rounded=0;whiteSpace=wrap;html=1;fillColor=none;" parent="C9t4qM2Tk1lndr6YPbpe-41" vertex="1">
          <mxGeometry y="5" width="120" height="60" as="geometry" />
        </mxCell>
        <mxCell id="C9t4qM2Tk1lndr6YPbpe-43" value="" style="rounded=0;whiteSpace=wrap;html=1;fillColor=none;" parent="C9t4qM2Tk1lndr6YPbpe-41" vertex="1">
          <mxGeometry x="40" y="5" width="40" height="20" as="geometry" />
        </mxCell>
        <mxCell id="C9t4qM2Tk1lndr6YPbpe-44" value="10" style="text;html=1;align=center;verticalAlign=middle;whiteSpace=wrap;rounded=0;" parent="C9t4qM2Tk1lndr6YPbpe-41" vertex="1">
          <mxGeometry x="30" width="60" height="30" as="geometry" />
        </mxCell>
        <mxCell id="C9t4qM2Tk1lndr6YPbpe-45" value="&lt;div style=&quot;font-size: medium; text-align: start; background-color: transparent; font-family: sans-serif;&quot;&gt;The Big Short&lt;/div&gt;" style="text;html=1;align=center;verticalAlign=middle;whiteSpace=wrap;rounded=0;" parent="C9t4qM2Tk1lndr6YPbpe-41" vertex="1">
          <mxGeometry y="35" width="120" height="30" as="geometry" />
        </mxCell>
        <mxCell id="C9t4qM2Tk1lndr6YPbpe-46" value="" style="group" parent="1" vertex="1" connectable="0">
          <mxGeometry x="120" y="840" width="120" height="65" as="geometry" />
        </mxCell>
        <mxCell id="C9t4qM2Tk1lndr6YPbpe-47" value="" style="rounded=0;whiteSpace=wrap;html=1;fillColor=none;" parent="C9t4qM2Tk1lndr6YPbpe-46" vertex="1">
          <mxGeometry y="5" width="120" height="60" as="geometry" />
        </mxCell>
        <mxCell id="C9t4qM2Tk1lndr6YPbpe-48" value="" style="rounded=0;whiteSpace=wrap;html=1;fillColor=none;" parent="C9t4qM2Tk1lndr6YPbpe-46" vertex="1">
          <mxGeometry x="40" y="5" width="40" height="20" as="geometry" />
        </mxCell>
        <mxCell id="C9t4qM2Tk1lndr6YPbpe-49" value="9" style="text;html=1;align=center;verticalAlign=middle;whiteSpace=wrap;rounded=0;" parent="C9t4qM2Tk1lndr6YPbpe-46" vertex="1">
          <mxGeometry x="30" width="60" height="30" as="geometry" />
        </mxCell>
        <mxCell id="C9t4qM2Tk1lndr6YPbpe-50" value="&lt;div style=&quot;font-size: medium; text-align: start; background-color: transparent; font-family: sans-serif;&quot;&gt;Shrek&lt;/div&gt;" style="text;html=1;align=center;verticalAlign=middle;whiteSpace=wrap;rounded=0;" parent="C9t4qM2Tk1lndr6YPbpe-46" vertex="1">
          <mxGeometry y="35" width="120" height="30" as="geometry" />
        </mxCell>
        <mxCell id="C9t4qM2Tk1lndr6YPbpe-107" value="" style="group" parent="1" vertex="1" connectable="0">
          <mxGeometry x="430" y="240" width="80" height="80" as="geometry" />
        </mxCell>
        <mxCell id="C9t4qM2Tk1lndr6YPbpe-103" value="" style="rhombus;whiteSpace=wrap;html=1;fillColor=none;" parent="C9t4qM2Tk1lndr6YPbpe-107" vertex="1">
          <mxGeometry width="80" height="80" as="geometry" />
        </mxCell>
        <mxCell id="C9t4qM2Tk1lndr6YPbpe-104" value="" style="rhombus;whiteSpace=wrap;html=1;fillColor=none;" parent="C9t4qM2Tk1lndr6YPbpe-107" vertex="1">
          <mxGeometry x="25" width="30" height="30" as="geometry" />
        </mxCell>
        <mxCell id="C9t4qM2Tk1lndr6YPbpe-105" value="3" style="text;html=1;align=center;verticalAlign=middle;whiteSpace=wrap;rounded=0;" parent="C9t4qM2Tk1lndr6YPbpe-107" vertex="1">
          <mxGeometry x="15" y="5" width="50" height="20" as="geometry" />
        </mxCell>
        <mxCell id="C9t4qM2Tk1lndr6YPbpe-106" value="&lt;div style=&quot;font-size: medium; text-align: start; background-color: transparent; font-family: sans-serif;&quot;&gt;&lt;div style=&quot;background-color: transparent;&quot;&gt;Drama&lt;/div&gt;&lt;/div&gt;" style="text;html=1;align=center;verticalAlign=middle;whiteSpace=wrap;rounded=0;" parent="C9t4qM2Tk1lndr6YPbpe-107" vertex="1">
          <mxGeometry x="10" y="25" width="60" height="30" as="geometry" />
        </mxCell>
        <mxCell id="C9t4qM2Tk1lndr6YPbpe-108" value="" style="group" parent="1" vertex="1" connectable="0">
          <mxGeometry x="430" y="840" width="80" height="80" as="geometry" />
        </mxCell>
        <mxCell id="C9t4qM2Tk1lndr6YPbpe-109" value="" style="rhombus;whiteSpace=wrap;html=1;fillColor=none;" parent="C9t4qM2Tk1lndr6YPbpe-108" vertex="1">
          <mxGeometry width="80" height="80" as="geometry" />
        </mxCell>
        <mxCell id="C9t4qM2Tk1lndr6YPbpe-110" value="" style="rhombus;whiteSpace=wrap;html=1;fillColor=none;" parent="C9t4qM2Tk1lndr6YPbpe-108" vertex="1">
          <mxGeometry x="25" width="30" height="30" as="geometry" />
        </mxCell>
        <mxCell id="C9t4qM2Tk1lndr6YPbpe-111" value="9" style="text;html=1;align=center;verticalAlign=middle;whiteSpace=wrap;rounded=0;" parent="C9t4qM2Tk1lndr6YPbpe-108" vertex="1">
          <mxGeometry x="15" y="5" width="50" height="20" as="geometry" />
        </mxCell>
        <mxCell id="C9t4qM2Tk1lndr6YPbpe-112" value="&lt;div style=&quot;font-size: medium; text-align: start; background-color: transparent; font-family: sans-serif;&quot;&gt;Action&lt;/div&gt;" style="text;html=1;align=center;verticalAlign=middle;whiteSpace=wrap;rounded=0;" parent="C9t4qM2Tk1lndr6YPbpe-108" vertex="1">
          <mxGeometry x="10" y="25" width="60" height="30" as="geometry" />
        </mxCell>
        <mxCell id="C9t4qM2Tk1lndr6YPbpe-133" value="" style="group" parent="1" vertex="1" connectable="0">
          <mxGeometry x="430" y="140" width="80" height="80" as="geometry" />
        </mxCell>
        <mxCell id="C9t4qM2Tk1lndr6YPbpe-134" value="" style="rhombus;whiteSpace=wrap;html=1;fillColor=none;" parent="C9t4qM2Tk1lndr6YPbpe-133" vertex="1">
          <mxGeometry width="80" height="80" as="geometry" />
        </mxCell>
        <mxCell id="C9t4qM2Tk1lndr6YPbpe-135" value="" style="rhombus;whiteSpace=wrap;html=1;fillColor=none;" parent="C9t4qM2Tk1lndr6YPbpe-133" vertex="1">
          <mxGeometry x="25" width="30" height="30" as="geometry" />
        </mxCell>
        <mxCell id="C9t4qM2Tk1lndr6YPbpe-136" value="2" style="text;html=1;align=center;verticalAlign=middle;whiteSpace=wrap;rounded=0;" parent="C9t4qM2Tk1lndr6YPbpe-133" vertex="1">
          <mxGeometry x="15" y="5" width="50" height="20" as="geometry" />
        </mxCell>
        <mxCell id="C9t4qM2Tk1lndr6YPbpe-137" value="&lt;div style=&quot;font-size: medium; text-align: start; background-color: transparent; font-family: sans-serif;&quot;&gt;&lt;div style=&quot;background-color: transparent;&quot;&gt;Sci-Fi&lt;/div&gt;&lt;/div&gt;" style="text;html=1;align=center;verticalAlign=middle;whiteSpace=wrap;rounded=0;" parent="C9t4qM2Tk1lndr6YPbpe-133" vertex="1">
          <mxGeometry x="10" y="25" width="60" height="30" as="geometry" />
        </mxCell>
        <mxCell id="C9t4qM2Tk1lndr6YPbpe-138" value="" style="group" parent="1" vertex="1" connectable="0">
          <mxGeometry x="430" y="440" width="80" height="80" as="geometry" />
        </mxCell>
        <mxCell id="C9t4qM2Tk1lndr6YPbpe-139" value="" style="rhombus;whiteSpace=wrap;html=1;fillColor=none;" parent="C9t4qM2Tk1lndr6YPbpe-138" vertex="1">
          <mxGeometry width="80" height="80" as="geometry" />
        </mxCell>
        <mxCell id="C9t4qM2Tk1lndr6YPbpe-140" value="" style="rhombus;whiteSpace=wrap;html=1;fillColor=none;" parent="C9t4qM2Tk1lndr6YPbpe-138" vertex="1">
          <mxGeometry x="25" width="30" height="30" as="geometry" />
        </mxCell>
        <mxCell id="C9t4qM2Tk1lndr6YPbpe-141" value="5" style="text;html=1;align=center;verticalAlign=middle;whiteSpace=wrap;rounded=0;" parent="C9t4qM2Tk1lndr6YPbpe-138" vertex="1">
          <mxGeometry x="15" y="5" width="50" height="20" as="geometry" />
        </mxCell>
        <mxCell id="C9t4qM2Tk1lndr6YPbpe-142" value="&lt;div style=&quot;font-size: medium; text-align: start; background-color: transparent; font-family: sans-serif;&quot;&gt;&lt;div style=&quot;background-color: transparent;&quot;&gt;Crime&lt;/div&gt;&lt;/div&gt;" style="text;html=1;align=center;verticalAlign=middle;whiteSpace=wrap;rounded=0;" parent="C9t4qM2Tk1lndr6YPbpe-138" vertex="1">
          <mxGeometry x="10" y="25" width="60" height="30" as="geometry" />
        </mxCell>
        <mxCell id="C9t4qM2Tk1lndr6YPbpe-143" value="" style="group" parent="1" vertex="1" connectable="0">
          <mxGeometry x="430" y="540" width="80" height="80" as="geometry" />
        </mxCell>
        <mxCell id="C9t4qM2Tk1lndr6YPbpe-144" value="" style="rhombus;whiteSpace=wrap;html=1;fillColor=none;" parent="C9t4qM2Tk1lndr6YPbpe-143" vertex="1">
          <mxGeometry width="80" height="80" as="geometry" />
        </mxCell>
        <mxCell id="C9t4qM2Tk1lndr6YPbpe-145" value="" style="rhombus;whiteSpace=wrap;html=1;fillColor=none;" parent="C9t4qM2Tk1lndr6YPbpe-143" vertex="1">
          <mxGeometry x="25" width="30" height="30" as="geometry" />
        </mxCell>
        <mxCell id="C9t4qM2Tk1lndr6YPbpe-146" value="6" style="text;html=1;align=center;verticalAlign=middle;whiteSpace=wrap;rounded=0;" parent="C9t4qM2Tk1lndr6YPbpe-143" vertex="1">
          <mxGeometry x="15" y="5" width="50" height="20" as="geometry" />
        </mxCell>
        <mxCell id="C9t4qM2Tk1lndr6YPbpe-147" value="&lt;div style=&quot;font-size: medium; text-align: start; background-color: transparent; font-family: sans-serif;&quot;&gt;&lt;div style=&quot;background-color: transparent;&quot;&gt;Comedy&lt;/div&gt;&lt;/div&gt;" style="text;html=1;align=center;verticalAlign=middle;whiteSpace=wrap;rounded=0;" parent="C9t4qM2Tk1lndr6YPbpe-143" vertex="1">
          <mxGeometry x="10" y="25" width="60" height="30" as="geometry" />
        </mxCell>
        <mxCell id="C9t4qM2Tk1lndr6YPbpe-148" value="" style="group" parent="1" vertex="1" connectable="0">
          <mxGeometry x="430" y="640" width="80" height="80" as="geometry" />
        </mxCell>
        <mxCell id="C9t4qM2Tk1lndr6YPbpe-149" value="" style="rhombus;whiteSpace=wrap;html=1;fillColor=none;" parent="C9t4qM2Tk1lndr6YPbpe-148" vertex="1">
          <mxGeometry width="80" height="80" as="geometry" />
        </mxCell>
        <mxCell id="C9t4qM2Tk1lndr6YPbpe-150" value="" style="rhombus;whiteSpace=wrap;html=1;fillColor=none;" parent="C9t4qM2Tk1lndr6YPbpe-148" vertex="1">
          <mxGeometry x="25" width="30" height="30" as="geometry" />
        </mxCell>
        <mxCell id="C9t4qM2Tk1lndr6YPbpe-151" value="7" style="text;html=1;align=center;verticalAlign=middle;whiteSpace=wrap;rounded=0;" parent="C9t4qM2Tk1lndr6YPbpe-148" vertex="1">
          <mxGeometry x="15" y="5" width="50" height="20" as="geometry" />
        </mxCell>
        <mxCell id="C9t4qM2Tk1lndr6YPbpe-152" value="&lt;div style=&quot;font-size: medium; text-align: start; background-color: transparent; font-family: sans-serif;&quot;&gt;&lt;div style=&quot;background-color: transparent;&quot;&gt;Romance&lt;/div&gt;&lt;/div&gt;" style="text;html=1;align=center;verticalAlign=middle;whiteSpace=wrap;rounded=0;" parent="C9t4qM2Tk1lndr6YPbpe-148" vertex="1">
          <mxGeometry x="10" y="25" width="60" height="30" as="geometry" />
        </mxCell>
        <mxCell id="C9t4qM2Tk1lndr6YPbpe-153" value="" style="group" parent="1" vertex="1" connectable="0">
          <mxGeometry x="430" y="40" width="80" height="80" as="geometry" />
        </mxCell>
        <mxCell id="C9t4qM2Tk1lndr6YPbpe-154" value="" style="rhombus;whiteSpace=wrap;html=1;fillColor=none;" parent="C9t4qM2Tk1lndr6YPbpe-153" vertex="1">
          <mxGeometry width="80" height="80" as="geometry" />
        </mxCell>
        <mxCell id="C9t4qM2Tk1lndr6YPbpe-155" value="" style="rhombus;whiteSpace=wrap;html=1;fillColor=none;" parent="C9t4qM2Tk1lndr6YPbpe-153" vertex="1">
          <mxGeometry x="25" width="30" height="30" as="geometry" />
        </mxCell>
        <mxCell id="C9t4qM2Tk1lndr6YPbpe-156" value="1" style="text;html=1;align=center;verticalAlign=middle;whiteSpace=wrap;rounded=0;" parent="C9t4qM2Tk1lndr6YPbpe-153" vertex="1">
          <mxGeometry x="15" y="5" width="50" height="20" as="geometry" />
        </mxCell>
        <mxCell id="C9t4qM2Tk1lndr6YPbpe-157" value="&lt;div style=&quot;font-size: medium; text-align: start; background-color: transparent; font-family: sans-serif;&quot;&gt;&lt;div style=&quot;background-color: transparent;&quot;&gt;Mystery&lt;/div&gt;&lt;/div&gt;" style="text;html=1;align=center;verticalAlign=middle;whiteSpace=wrap;rounded=0;" parent="C9t4qM2Tk1lndr6YPbpe-153" vertex="1">
          <mxGeometry x="10" y="25" width="60" height="30" as="geometry" />
        </mxCell>
        <mxCell id="C9t4qM2Tk1lndr6YPbpe-158" value="" style="group" parent="1" vertex="1" connectable="0">
          <mxGeometry x="430" y="340" width="80" height="80" as="geometry" />
        </mxCell>
        <mxCell id="C9t4qM2Tk1lndr6YPbpe-159" value="" style="rhombus;whiteSpace=wrap;html=1;fillColor=none;" parent="C9t4qM2Tk1lndr6YPbpe-158" vertex="1">
          <mxGeometry width="80" height="80" as="geometry" />
        </mxCell>
        <mxCell id="C9t4qM2Tk1lndr6YPbpe-160" value="" style="rhombus;whiteSpace=wrap;html=1;fillColor=none;" parent="C9t4qM2Tk1lndr6YPbpe-158" vertex="1">
          <mxGeometry x="25" width="30" height="30" as="geometry" />
        </mxCell>
        <mxCell id="C9t4qM2Tk1lndr6YPbpe-161" value="4" style="text;html=1;align=center;verticalAlign=middle;whiteSpace=wrap;rounded=0;" parent="C9t4qM2Tk1lndr6YPbpe-158" vertex="1">
          <mxGeometry x="15" y="5" width="50" height="20" as="geometry" />
        </mxCell>
        <mxCell id="C9t4qM2Tk1lndr6YPbpe-162" value="&lt;div style=&quot;font-size: medium; text-align: start; background-color: transparent; font-family: sans-serif;&quot;&gt;&lt;div style=&quot;background-color: transparent;&quot;&gt;Thriller&lt;/div&gt;&lt;/div&gt;" style="text;html=1;align=center;verticalAlign=middle;whiteSpace=wrap;rounded=0;" parent="C9t4qM2Tk1lndr6YPbpe-158" vertex="1">
          <mxGeometry x="10" y="25" width="60" height="30" as="geometry" />
        </mxCell>
        <mxCell id="C9t4qM2Tk1lndr6YPbpe-183" value="" style="group" parent="1" vertex="1" connectable="0">
          <mxGeometry x="430" y="940" width="80" height="80" as="geometry" />
        </mxCell>
        <mxCell id="C9t4qM2Tk1lndr6YPbpe-184" value="" style="rhombus;whiteSpace=wrap;html=1;fillColor=none;" parent="C9t4qM2Tk1lndr6YPbpe-183" vertex="1">
          <mxGeometry width="80" height="80" as="geometry" />
        </mxCell>
        <mxCell id="C9t4qM2Tk1lndr6YPbpe-185" value="" style="rhombus;whiteSpace=wrap;html=1;fillColor=none;" parent="C9t4qM2Tk1lndr6YPbpe-183" vertex="1">
          <mxGeometry x="25" width="30" height="30" as="geometry" />
        </mxCell>
        <mxCell id="C9t4qM2Tk1lndr6YPbpe-186" value="10" style="text;html=1;align=center;verticalAlign=middle;whiteSpace=wrap;rounded=0;" parent="C9t4qM2Tk1lndr6YPbpe-183" vertex="1">
          <mxGeometry x="15" y="5" width="50" height="20" as="geometry" />
        </mxCell>
        <mxCell id="C9t4qM2Tk1lndr6YPbpe-187" value="&lt;div style=&quot;font-size: medium; text-align: start; background-color: transparent; font-family: sans-serif;&quot;&gt;&lt;div style=&quot;background-color: transparent;&quot;&gt;Adventure&lt;/div&gt;&lt;/div&gt;" style="text;html=1;align=center;verticalAlign=middle;whiteSpace=wrap;rounded=0;" parent="C9t4qM2Tk1lndr6YPbpe-183" vertex="1">
          <mxGeometry x="10" y="25" width="60" height="30" as="geometry" />
        </mxCell>
        <mxCell id="C9t4qM2Tk1lndr6YPbpe-188" value="" style="group" parent="1" vertex="1" connectable="0">
          <mxGeometry x="430" y="740" width="80" height="80" as="geometry" />
        </mxCell>
        <mxCell id="C9t4qM2Tk1lndr6YPbpe-189" value="" style="rhombus;whiteSpace=wrap;html=1;fillColor=none;" parent="C9t4qM2Tk1lndr6YPbpe-188" vertex="1">
          <mxGeometry width="80" height="80" as="geometry" />
        </mxCell>
        <mxCell id="C9t4qM2Tk1lndr6YPbpe-190" value="" style="rhombus;whiteSpace=wrap;html=1;fillColor=none;" parent="C9t4qM2Tk1lndr6YPbpe-188" vertex="1">
          <mxGeometry x="25" width="30" height="30" as="geometry" />
        </mxCell>
        <mxCell id="C9t4qM2Tk1lndr6YPbpe-191" value="8" style="text;html=1;align=center;verticalAlign=middle;whiteSpace=wrap;rounded=0;" parent="C9t4qM2Tk1lndr6YPbpe-188" vertex="1">
          <mxGeometry x="15" y="5" width="50" height="20" as="geometry" />
        </mxCell>
        <mxCell id="C9t4qM2Tk1lndr6YPbpe-192" value="&lt;div style=&quot;font-size: medium; text-align: start; background-color: transparent; font-family: sans-serif;&quot;&gt;&lt;div style=&quot;background-color: transparent;&quot;&gt;Superhero&lt;/div&gt;&lt;/div&gt;" style="text;html=1;align=center;verticalAlign=middle;whiteSpace=wrap;rounded=0;" parent="C9t4qM2Tk1lndr6YPbpe-188" vertex="1">
          <mxGeometry x="10" y="25" width="60" height="30" as="geometry" />
        </mxCell>
        <mxCell id="C9t4qM2Tk1lndr6YPbpe-194" style="edgeStyle=orthogonalEdgeStyle;rounded=0;orthogonalLoop=1;jettySize=auto;html=1;exitX=1;exitY=0.5;exitDx=0;exitDy=0;entryX=0;entryY=0.5;entryDx=0;entryDy=0;curved=1;" parent="1" source="C9t4qM2Tk1lndr6YPbpe-2" target="C9t4qM2Tk1lndr6YPbpe-134" edge="1">
          <mxGeometry relative="1" as="geometry" />
        </mxCell>
        <mxCell id="C9t4qM2Tk1lndr6YPbpe-196" style="edgeStyle=orthogonalEdgeStyle;rounded=0;orthogonalLoop=1;jettySize=auto;html=1;exitX=1;exitY=0.5;exitDx=0;exitDy=0;entryX=0;entryY=0.5;entryDx=0;entryDy=0;curved=1;" parent="1" source="C9t4qM2Tk1lndr6YPbpe-7" target="C9t4qM2Tk1lndr6YPbpe-134" edge="1">
          <mxGeometry relative="1" as="geometry" />
        </mxCell>
        <mxCell id="C9t4qM2Tk1lndr6YPbpe-197" style="edgeStyle=orthogonalEdgeStyle;rounded=0;orthogonalLoop=1;jettySize=auto;html=1;exitX=1;exitY=0;exitDx=0;exitDy=0;entryX=0;entryY=0.5;entryDx=0;entryDy=0;curved=1;" parent="1" source="C9t4qM2Tk1lndr6YPbpe-15" target="C9t4qM2Tk1lndr6YPbpe-103" edge="1">
          <mxGeometry relative="1" as="geometry" />
        </mxCell>
        <mxCell id="C9t4qM2Tk1lndr6YPbpe-198" style="edgeStyle=orthogonalEdgeStyle;rounded=0;orthogonalLoop=1;jettySize=auto;html=1;exitX=1;exitY=0;exitDx=0;exitDy=0;entryX=0;entryY=0.5;entryDx=0;entryDy=0;curved=1;" parent="1" source="C9t4qM2Tk1lndr6YPbpe-20" target="C9t4qM2Tk1lndr6YPbpe-139" edge="1">
          <mxGeometry relative="1" as="geometry" />
        </mxCell>
        <mxCell id="C9t4qM2Tk1lndr6YPbpe-199" style="edgeStyle=orthogonalEdgeStyle;rounded=0;orthogonalLoop=1;jettySize=auto;html=1;exitX=1;exitY=0;exitDx=0;exitDy=0;entryX=0;entryY=0.5;entryDx=0;entryDy=0;curved=1;" parent="1" source="C9t4qM2Tk1lndr6YPbpe-40" target="C9t4qM2Tk1lndr6YPbpe-189" edge="1">
          <mxGeometry relative="1" as="geometry" />
        </mxCell>
        <mxCell id="C9t4qM2Tk1lndr6YPbpe-200" style="edgeStyle=orthogonalEdgeStyle;rounded=0;orthogonalLoop=1;jettySize=auto;html=1;exitX=1;exitY=0;exitDx=0;exitDy=0;entryX=0;entryY=0.5;entryDx=0;entryDy=0;curved=1;" parent="1" source="C9t4qM2Tk1lndr6YPbpe-35" target="C9t4qM2Tk1lndr6YPbpe-149" edge="1">
          <mxGeometry relative="1" as="geometry">
            <Array as="points">
              <mxPoint x="240" y="555" />
              <mxPoint x="360" y="555" />
              <mxPoint x="360" y="680" />
            </Array>
          </mxGeometry>
        </mxCell>
        <mxCell id="C9t4qM2Tk1lndr6YPbpe-201" style="edgeStyle=orthogonalEdgeStyle;rounded=0;orthogonalLoop=1;jettySize=auto;html=1;exitX=1;exitY=0.5;exitDx=0;exitDy=0;entryX=0;entryY=0.5;entryDx=0;entryDy=0;curved=1;" parent="1" source="C9t4qM2Tk1lndr6YPbpe-27" target="C9t4qM2Tk1lndr6YPbpe-159" edge="1">
          <mxGeometry relative="1" as="geometry">
            <Array as="points">
              <mxPoint x="360" y="675" />
              <mxPoint x="360" y="380" />
            </Array>
          </mxGeometry>
        </mxCell>
        <mxCell id="C9t4qM2Tk1lndr6YPbpe-202" style="edgeStyle=orthogonalEdgeStyle;rounded=0;orthogonalLoop=1;jettySize=auto;html=1;exitX=1;exitY=0.5;exitDx=0;exitDy=0;entryX=0;entryY=0.5;entryDx=0;entryDy=0;curved=1;" parent="1" source="C9t4qM2Tk1lndr6YPbpe-22" target="C9t4qM2Tk1lndr6YPbpe-139" edge="1">
          <mxGeometry relative="1" as="geometry">
            <Array as="points">
              <mxPoint x="300" y="775" />
              <mxPoint x="300" y="480" />
            </Array>
          </mxGeometry>
        </mxCell>
        <mxCell id="C9t4qM2Tk1lndr6YPbpe-206" style="edgeStyle=orthogonalEdgeStyle;rounded=0;orthogonalLoop=1;jettySize=auto;html=1;exitX=1;exitY=0.25;exitDx=0;exitDy=0;entryX=0;entryY=0.5;entryDx=0;entryDy=0;curved=1;" parent="1" source="C9t4qM2Tk1lndr6YPbpe-47" target="C9t4qM2Tk1lndr6YPbpe-144" edge="1">
          <mxGeometry relative="1" as="geometry">
            <Array as="points">
              <mxPoint x="350" y="860" />
              <mxPoint x="350" y="580" />
            </Array>
          </mxGeometry>
        </mxCell>
        <mxCell id="C9t4qM2Tk1lndr6YPbpe-207" style="edgeStyle=orthogonalEdgeStyle;rounded=0;orthogonalLoop=1;jettySize=auto;html=1;exitX=1;exitY=0.25;exitDx=0;exitDy=0;entryX=0;entryY=0.5;entryDx=0;entryDy=0;curved=1;" parent="1" source="C9t4qM2Tk1lndr6YPbpe-42" target="C9t4qM2Tk1lndr6YPbpe-109" edge="1">
          <mxGeometry relative="1" as="geometry">
            <Array as="points">
              <mxPoint x="360" y="960" />
              <mxPoint x="360" y="880" />
            </Array>
          </mxGeometry>
        </mxCell>
        <mxCell id="C9t4qM2Tk1lndr6YPbpe-208" style="edgeStyle=orthogonalEdgeStyle;rounded=0;orthogonalLoop=1;jettySize=auto;html=1;exitX=1;exitY=0.5;exitDx=0;exitDy=0;entryX=0;entryY=0.5;entryDx=0;entryDy=0;curved=1;" parent="1" source="C9t4qM2Tk1lndr6YPbpe-47" target="C9t4qM2Tk1lndr6YPbpe-184" edge="1">
          <mxGeometry relative="1" as="geometry" />
        </mxCell>
      </root>
    </mxGraphModel>
  </diagram>
  <diagram id="Uzoad8hty7JL1YtJnTsJ" name="Likes">
    <mxGraphModel dx="1501" dy="782" grid="1" gridSize="10" guides="1" tooltips="1" connect="1" arrows="1" fold="1" page="1" pageScale="1" pageWidth="827" pageHeight="1169" math="0" shadow="0">
      <root>
        <mxCell id="0" />
        <mxCell id="1" parent="0" />
        <mxCell id="lSXES3Q8pE3ETxAh_E6f-1" value="" style="group" vertex="1" connectable="0" parent="1">
          <mxGeometry x="120" y="40" width="80" height="80" as="geometry" />
        </mxCell>
        <mxCell id="lSXES3Q8pE3ETxAh_E6f-2" value="" style="ellipse;whiteSpace=wrap;html=1;aspect=fixed;fillColor=none;" vertex="1" parent="lSXES3Q8pE3ETxAh_E6f-1">
          <mxGeometry x="20" width="40" height="40" as="geometry" />
        </mxCell>
        <mxCell id="lSXES3Q8pE3ETxAh_E6f-3" value="" style="ellipse;whiteSpace=wrap;html=1;aspect=fixed;fillColor=none;" vertex="1" parent="lSXES3Q8pE3ETxAh_E6f-1">
          <mxGeometry width="80" height="80" as="geometry" />
        </mxCell>
        <mxCell id="lSXES3Q8pE3ETxAh_E6f-4" value="1" style="text;html=1;align=center;verticalAlign=middle;whiteSpace=wrap;rounded=0;" vertex="1" parent="lSXES3Q8pE3ETxAh_E6f-1">
          <mxGeometry x="10" y="5" width="60" height="30" as="geometry" />
        </mxCell>
        <mxCell id="lSXES3Q8pE3ETxAh_E6f-5" value="&lt;div style=&quot;color: black; font-size: medium; text-align: start; background-color: transparent; font-family: sans-serif;&quot;&gt;&lt;span style=&quot;background-color: transparent; border: 0px solid black; box-sizing: border-box; display: inline; font-style: inherit; font-variant: inherit; font-weight: inherit; font-stretch: inherit; font-size: inherit; line-height: inherit; font-optical-sizing: inherit; font-size-adjust: inherit; font-kerning: inherit; font-feature-settings: inherit; font-variation-settings: inherit; list-style: none; margin: 0px; padding: 0px; position: relative; text-align: inherit; white-space: inherit; overflow-wrap: break-word; min-width: 0px;&quot; class=&quot;css-1jxf684 r-bcqeeo r-1ttztb7 r-qvutc0 r-poiln3&quot;&gt;Alice&lt;/span&gt;&lt;span style=&quot;background-color: transparent; border: 0px solid black; box-sizing: border-box; display: inline; font-style: inherit; font-variant: inherit; font-weight: inherit; font-stretch: inherit; font-size: inherit; line-height: inherit; font-optical-sizing: inherit; font-size-adjust: inherit; font-kerning: inherit; font-feature-settings: inherit; font-variation-settings: inherit; list-style: none; margin: 0px; padding: 0px; position: relative; text-align: inherit; white-space: inherit; overflow-wrap: break-word; min-width: 0px;&quot; class=&quot;css-1jxf684 r-bcqeeo r-1ttztb7 r-qvutc0 r-poiln3&quot;&gt;&lt;/span&gt;&lt;/div&gt;" style="text;html=1;align=center;verticalAlign=middle;whiteSpace=wrap;rounded=0;" vertex="1" parent="lSXES3Q8pE3ETxAh_E6f-1">
          <mxGeometry x="10" y="40" width="60" height="30" as="geometry" />
        </mxCell>
        <mxCell id="lSXES3Q8pE3ETxAh_E6f-6" value="" style="group" vertex="1" connectable="0" parent="1">
          <mxGeometry x="120" y="140" width="80" height="80" as="geometry" />
        </mxCell>
        <mxCell id="lSXES3Q8pE3ETxAh_E6f-7" value="" style="ellipse;whiteSpace=wrap;html=1;aspect=fixed;fillColor=none;" vertex="1" parent="lSXES3Q8pE3ETxAh_E6f-6">
          <mxGeometry x="20" width="40" height="40" as="geometry" />
        </mxCell>
        <mxCell id="lSXES3Q8pE3ETxAh_E6f-8" value="" style="ellipse;whiteSpace=wrap;html=1;aspect=fixed;fillColor=none;" vertex="1" parent="lSXES3Q8pE3ETxAh_E6f-6">
          <mxGeometry width="80" height="80" as="geometry" />
        </mxCell>
        <mxCell id="lSXES3Q8pE3ETxAh_E6f-9" value="2" style="text;html=1;align=center;verticalAlign=middle;whiteSpace=wrap;rounded=0;" vertex="1" parent="lSXES3Q8pE3ETxAh_E6f-6">
          <mxGeometry x="10" y="5" width="60" height="30" as="geometry" />
        </mxCell>
        <mxCell id="lSXES3Q8pE3ETxAh_E6f-10" value="&lt;div style=&quot;font-size: medium; text-align: start; background-color: transparent; font-family: sans-serif;&quot;&gt;Bob&lt;/div&gt;" style="text;html=1;align=center;verticalAlign=middle;whiteSpace=wrap;rounded=0;" vertex="1" parent="lSXES3Q8pE3ETxAh_E6f-6">
          <mxGeometry x="10" y="40" width="60" height="30" as="geometry" />
        </mxCell>
        <mxCell id="lSXES3Q8pE3ETxAh_E6f-11" value="" style="group" vertex="1" connectable="0" parent="1">
          <mxGeometry x="120" y="640" width="80" height="80" as="geometry" />
        </mxCell>
        <mxCell id="lSXES3Q8pE3ETxAh_E6f-12" value="" style="ellipse;whiteSpace=wrap;html=1;aspect=fixed;fillColor=none;" vertex="1" parent="lSXES3Q8pE3ETxAh_E6f-11">
          <mxGeometry x="20" width="40" height="40" as="geometry" />
        </mxCell>
        <mxCell id="lSXES3Q8pE3ETxAh_E6f-13" value="" style="ellipse;whiteSpace=wrap;html=1;aspect=fixed;fillColor=none;" vertex="1" parent="lSXES3Q8pE3ETxAh_E6f-11">
          <mxGeometry width="80" height="80" as="geometry" />
        </mxCell>
        <mxCell id="lSXES3Q8pE3ETxAh_E6f-14" value="7" style="text;html=1;align=center;verticalAlign=middle;whiteSpace=wrap;rounded=0;" vertex="1" parent="lSXES3Q8pE3ETxAh_E6f-11">
          <mxGeometry x="10" y="5" width="60" height="30" as="geometry" />
        </mxCell>
        <mxCell id="lSXES3Q8pE3ETxAh_E6f-15" value="&lt;div style=&quot;font-size: medium; text-align: start; background-color: transparent; font-family: sans-serif;&quot;&gt;George&lt;/div&gt;" style="text;html=1;align=center;verticalAlign=middle;whiteSpace=wrap;rounded=0;" vertex="1" parent="lSXES3Q8pE3ETxAh_E6f-11">
          <mxGeometry x="10" y="40" width="60" height="30" as="geometry" />
        </mxCell>
        <mxCell id="lSXES3Q8pE3ETxAh_E6f-16" value="" style="group" vertex="1" connectable="0" parent="1">
          <mxGeometry x="120" y="540" width="80" height="80" as="geometry" />
        </mxCell>
        <mxCell id="lSXES3Q8pE3ETxAh_E6f-17" value="" style="ellipse;whiteSpace=wrap;html=1;aspect=fixed;fillColor=none;" vertex="1" parent="lSXES3Q8pE3ETxAh_E6f-16">
          <mxGeometry x="20" width="40" height="40" as="geometry" />
        </mxCell>
        <mxCell id="lSXES3Q8pE3ETxAh_E6f-18" value="" style="ellipse;whiteSpace=wrap;html=1;aspect=fixed;fillColor=none;" vertex="1" parent="lSXES3Q8pE3ETxAh_E6f-16">
          <mxGeometry width="80" height="80" as="geometry" />
        </mxCell>
        <mxCell id="lSXES3Q8pE3ETxAh_E6f-19" value="6" style="text;html=1;align=center;verticalAlign=middle;whiteSpace=wrap;rounded=0;" vertex="1" parent="lSXES3Q8pE3ETxAh_E6f-16">
          <mxGeometry x="10" y="5" width="60" height="30" as="geometry" />
        </mxCell>
        <mxCell id="lSXES3Q8pE3ETxAh_E6f-20" value="&lt;div style=&quot;font-size: medium; text-align: start; background-color: transparent; font-family: sans-serif;&quot;&gt;Fiona&lt;/div&gt;" style="text;html=1;align=center;verticalAlign=middle;whiteSpace=wrap;rounded=0;" vertex="1" parent="lSXES3Q8pE3ETxAh_E6f-16">
          <mxGeometry x="10" y="40" width="60" height="30" as="geometry" />
        </mxCell>
        <mxCell id="lSXES3Q8pE3ETxAh_E6f-21" value="" style="group" vertex="1" connectable="0" parent="1">
          <mxGeometry x="120" y="240" width="80" height="80" as="geometry" />
        </mxCell>
        <mxCell id="lSXES3Q8pE3ETxAh_E6f-22" value="" style="ellipse;whiteSpace=wrap;html=1;aspect=fixed;fillColor=none;" vertex="1" parent="lSXES3Q8pE3ETxAh_E6f-21">
          <mxGeometry x="20" width="40" height="40" as="geometry" />
        </mxCell>
        <mxCell id="lSXES3Q8pE3ETxAh_E6f-23" value="" style="ellipse;whiteSpace=wrap;html=1;aspect=fixed;fillColor=none;" vertex="1" parent="lSXES3Q8pE3ETxAh_E6f-21">
          <mxGeometry width="80" height="80" as="geometry" />
        </mxCell>
        <mxCell id="lSXES3Q8pE3ETxAh_E6f-24" value="3" style="text;html=1;align=center;verticalAlign=middle;whiteSpace=wrap;rounded=0;" vertex="1" parent="lSXES3Q8pE3ETxAh_E6f-21">
          <mxGeometry x="10" y="5" width="60" height="30" as="geometry" />
        </mxCell>
        <mxCell id="lSXES3Q8pE3ETxAh_E6f-25" value="&lt;div style=&quot;font-size: medium; text-align: start; background-color: transparent; font-family: sans-serif;&quot;&gt;Charlie&lt;/div&gt;" style="text;html=1;align=center;verticalAlign=middle;whiteSpace=wrap;rounded=0;" vertex="1" parent="lSXES3Q8pE3ETxAh_E6f-21">
          <mxGeometry x="10" y="40" width="60" height="30" as="geometry" />
        </mxCell>
        <mxCell id="lSXES3Q8pE3ETxAh_E6f-26" value="" style="group" vertex="1" connectable="0" parent="1">
          <mxGeometry x="120" y="340" width="80" height="82.5" as="geometry" />
        </mxCell>
        <mxCell id="lSXES3Q8pE3ETxAh_E6f-27" value="" style="ellipse;whiteSpace=wrap;html=1;aspect=fixed;fillColor=none;" vertex="1" parent="lSXES3Q8pE3ETxAh_E6f-26">
          <mxGeometry x="20" width="40" height="40" as="geometry" />
        </mxCell>
        <mxCell id="lSXES3Q8pE3ETxAh_E6f-28" value="" style="ellipse;whiteSpace=wrap;html=1;aspect=fixed;fillColor=none;" vertex="1" parent="lSXES3Q8pE3ETxAh_E6f-26">
          <mxGeometry width="80" height="80" as="geometry" />
        </mxCell>
        <mxCell id="lSXES3Q8pE3ETxAh_E6f-29" value="4" style="text;html=1;align=center;verticalAlign=middle;whiteSpace=wrap;rounded=0;" vertex="1" parent="lSXES3Q8pE3ETxAh_E6f-26">
          <mxGeometry x="10" y="5.15625" width="60" height="30.9375" as="geometry" />
        </mxCell>
        <mxCell id="lSXES3Q8pE3ETxAh_E6f-30" value="&lt;div style=&quot;font-size: medium; text-align: start; background-color: transparent; font-family: sans-serif;&quot;&gt;Diana&lt;/div&gt;" style="text;html=1;align=center;verticalAlign=middle;whiteSpace=wrap;rounded=0;" vertex="1" parent="lSXES3Q8pE3ETxAh_E6f-26">
          <mxGeometry x="10" y="41.25" width="60" height="30.9375" as="geometry" />
        </mxCell>
        <mxCell id="lSXES3Q8pE3ETxAh_E6f-31" value="" style="group" vertex="1" connectable="0" parent="1">
          <mxGeometry x="120" y="840" width="80" height="80" as="geometry" />
        </mxCell>
        <mxCell id="lSXES3Q8pE3ETxAh_E6f-32" value="" style="ellipse;whiteSpace=wrap;html=1;aspect=fixed;fillColor=none;" vertex="1" parent="lSXES3Q8pE3ETxAh_E6f-31">
          <mxGeometry x="20" width="40" height="40" as="geometry" />
        </mxCell>
        <mxCell id="lSXES3Q8pE3ETxAh_E6f-33" value="" style="ellipse;whiteSpace=wrap;html=1;aspect=fixed;fillColor=none;" vertex="1" parent="lSXES3Q8pE3ETxAh_E6f-31">
          <mxGeometry width="80" height="80" as="geometry" />
        </mxCell>
        <mxCell id="lSXES3Q8pE3ETxAh_E6f-34" value="9" style="text;html=1;align=center;verticalAlign=middle;whiteSpace=wrap;rounded=0;" vertex="1" parent="lSXES3Q8pE3ETxAh_E6f-31">
          <mxGeometry x="10" y="5" width="60" height="30" as="geometry" />
        </mxCell>
        <mxCell id="lSXES3Q8pE3ETxAh_E6f-35" value="&lt;div style=&quot;font-size: medium; text-align: start; background-color: transparent; font-family: sans-serif;&quot;&gt;Ian&lt;/div&gt;" style="text;html=1;align=center;verticalAlign=middle;whiteSpace=wrap;rounded=0;" vertex="1" parent="lSXES3Q8pE3ETxAh_E6f-31">
          <mxGeometry x="10" y="40" width="60" height="30" as="geometry" />
        </mxCell>
        <mxCell id="lSXES3Q8pE3ETxAh_E6f-36" value="" style="group" vertex="1" connectable="0" parent="1">
          <mxGeometry x="120" y="740" width="80" height="80" as="geometry" />
        </mxCell>
        <mxCell id="lSXES3Q8pE3ETxAh_E6f-37" value="" style="ellipse;whiteSpace=wrap;html=1;aspect=fixed;fillColor=none;" vertex="1" parent="lSXES3Q8pE3ETxAh_E6f-36">
          <mxGeometry x="20" width="40" height="40" as="geometry" />
        </mxCell>
        <mxCell id="lSXES3Q8pE3ETxAh_E6f-38" value="" style="ellipse;whiteSpace=wrap;html=1;aspect=fixed;fillColor=none;" vertex="1" parent="lSXES3Q8pE3ETxAh_E6f-36">
          <mxGeometry width="80" height="80" as="geometry" />
        </mxCell>
        <mxCell id="lSXES3Q8pE3ETxAh_E6f-39" value="8" style="text;html=1;align=center;verticalAlign=middle;whiteSpace=wrap;rounded=0;" vertex="1" parent="lSXES3Q8pE3ETxAh_E6f-36">
          <mxGeometry x="10" y="5" width="60" height="30" as="geometry" />
        </mxCell>
        <mxCell id="lSXES3Q8pE3ETxAh_E6f-40" value="&lt;div style=&quot;font-size: medium; text-align: start; background-color: transparent; font-family: sans-serif;&quot;&gt;Hannah&lt;/div&gt;" style="text;html=1;align=center;verticalAlign=middle;whiteSpace=wrap;rounded=0;" vertex="1" parent="lSXES3Q8pE3ETxAh_E6f-36">
          <mxGeometry x="10" y="40" width="60" height="30" as="geometry" />
        </mxCell>
        <mxCell id="lSXES3Q8pE3ETxAh_E6f-41" value="" style="group" vertex="1" connectable="0" parent="1">
          <mxGeometry x="120" y="440" width="80" height="80" as="geometry" />
        </mxCell>
        <mxCell id="lSXES3Q8pE3ETxAh_E6f-42" value="" style="ellipse;whiteSpace=wrap;html=1;aspect=fixed;fillColor=none;" vertex="1" parent="lSXES3Q8pE3ETxAh_E6f-41">
          <mxGeometry x="20" width="40" height="40" as="geometry" />
        </mxCell>
        <mxCell id="lSXES3Q8pE3ETxAh_E6f-43" value="" style="ellipse;whiteSpace=wrap;html=1;aspect=fixed;fillColor=none;" vertex="1" parent="lSXES3Q8pE3ETxAh_E6f-41">
          <mxGeometry width="80" height="80" as="geometry" />
        </mxCell>
        <mxCell id="lSXES3Q8pE3ETxAh_E6f-44" value="5" style="text;html=1;align=center;verticalAlign=middle;whiteSpace=wrap;rounded=0;" vertex="1" parent="lSXES3Q8pE3ETxAh_E6f-41">
          <mxGeometry x="10" y="5" width="60" height="30" as="geometry" />
        </mxCell>
        <mxCell id="lSXES3Q8pE3ETxAh_E6f-45" value="&lt;div style=&quot;font-size: medium; text-align: start; background-color: transparent; font-family: sans-serif;&quot;&gt;Ethan&lt;/div&gt;" style="text;html=1;align=center;verticalAlign=middle;whiteSpace=wrap;rounded=0;" vertex="1" parent="lSXES3Q8pE3ETxAh_E6f-41">
          <mxGeometry x="10" y="40" width="60" height="30" as="geometry" />
        </mxCell>
        <mxCell id="lSXES3Q8pE3ETxAh_E6f-46" value="" style="group" vertex="1" connectable="0" parent="1">
          <mxGeometry x="120" y="940" width="80" height="80" as="geometry" />
        </mxCell>
        <mxCell id="lSXES3Q8pE3ETxAh_E6f-47" value="" style="ellipse;whiteSpace=wrap;html=1;aspect=fixed;fillColor=none;" vertex="1" parent="lSXES3Q8pE3ETxAh_E6f-46">
          <mxGeometry x="20" width="40" height="40" as="geometry" />
        </mxCell>
        <mxCell id="lSXES3Q8pE3ETxAh_E6f-48" value="" style="ellipse;whiteSpace=wrap;html=1;aspect=fixed;fillColor=none;" vertex="1" parent="lSXES3Q8pE3ETxAh_E6f-46">
          <mxGeometry width="80" height="80" as="geometry" />
        </mxCell>
        <mxCell id="lSXES3Q8pE3ETxAh_E6f-49" value="10" style="text;html=1;align=center;verticalAlign=middle;whiteSpace=wrap;rounded=0;" vertex="1" parent="lSXES3Q8pE3ETxAh_E6f-46">
          <mxGeometry x="10" y="5" width="60" height="30" as="geometry" />
        </mxCell>
        <mxCell id="lSXES3Q8pE3ETxAh_E6f-50" value="&lt;div style=&quot;font-size: medium; text-align: start; background-color: transparent; font-family: sans-serif;&quot;&gt;Julia&lt;/div&gt;" style="text;html=1;align=center;verticalAlign=middle;whiteSpace=wrap;rounded=0;" vertex="1" parent="lSXES3Q8pE3ETxAh_E6f-46">
          <mxGeometry x="10" y="40" width="60" height="30" as="geometry" />
        </mxCell>
        <mxCell id="lSXES3Q8pE3ETxAh_E6f-102" value="" style="group" vertex="1" connectable="0" parent="1">
          <mxGeometry x="440" y="40" width="120" height="65" as="geometry" />
        </mxCell>
        <mxCell id="lSXES3Q8pE3ETxAh_E6f-62" value="" style="rounded=0;whiteSpace=wrap;html=1;fillColor=none;" vertex="1" parent="lSXES3Q8pE3ETxAh_E6f-102">
          <mxGeometry y="5" width="120" height="60" as="geometry" />
        </mxCell>
        <mxCell id="lSXES3Q8pE3ETxAh_E6f-63" value="" style="rounded=0;whiteSpace=wrap;html=1;fillColor=none;" vertex="1" parent="lSXES3Q8pE3ETxAh_E6f-102">
          <mxGeometry x="40" y="5" width="40" height="20" as="geometry" />
        </mxCell>
        <mxCell id="lSXES3Q8pE3ETxAh_E6f-64" value="1" style="text;html=1;align=center;verticalAlign=middle;whiteSpace=wrap;rounded=0;" vertex="1" parent="lSXES3Q8pE3ETxAh_E6f-102">
          <mxGeometry x="30" width="60" height="30" as="geometry" />
        </mxCell>
        <mxCell id="lSXES3Q8pE3ETxAh_E6f-65" value="&lt;div style=&quot;font-size: medium; text-align: start; background-color: transparent; font-family: sans-serif;&quot;&gt;The Matrix&lt;/div&gt;" style="text;html=1;align=center;verticalAlign=middle;whiteSpace=wrap;rounded=0;" vertex="1" parent="lSXES3Q8pE3ETxAh_E6f-102">
          <mxGeometry y="35" width="120" height="30" as="geometry" />
        </mxCell>
        <mxCell id="lSXES3Q8pE3ETxAh_E6f-103" value="" style="group" vertex="1" connectable="0" parent="1">
          <mxGeometry x="440" y="140" width="120" height="65" as="geometry" />
        </mxCell>
        <mxCell id="lSXES3Q8pE3ETxAh_E6f-66" value="" style="rounded=0;whiteSpace=wrap;html=1;fillColor=none;" vertex="1" parent="lSXES3Q8pE3ETxAh_E6f-103">
          <mxGeometry y="5" width="120" height="60" as="geometry" />
        </mxCell>
        <mxCell id="lSXES3Q8pE3ETxAh_E6f-67" value="" style="rounded=0;whiteSpace=wrap;html=1;fillColor=none;" vertex="1" parent="lSXES3Q8pE3ETxAh_E6f-103">
          <mxGeometry x="40" y="5" width="40" height="20" as="geometry" />
        </mxCell>
        <mxCell id="lSXES3Q8pE3ETxAh_E6f-68" value="2" style="text;html=1;align=center;verticalAlign=middle;whiteSpace=wrap;rounded=0;" vertex="1" parent="lSXES3Q8pE3ETxAh_E6f-103">
          <mxGeometry x="30" width="60" height="30" as="geometry" />
        </mxCell>
        <mxCell id="lSXES3Q8pE3ETxAh_E6f-69" value="&lt;div style=&quot;font-size: medium; text-align: start; background-color: transparent; font-family: sans-serif;&quot;&gt;&lt;div style=&quot;background-color: transparent;&quot;&gt;Inception&lt;/div&gt;&lt;/div&gt;" style="text;html=1;align=center;verticalAlign=middle;whiteSpace=wrap;rounded=0;" vertex="1" parent="lSXES3Q8pE3ETxAh_E6f-103">
          <mxGeometry y="35" width="120" height="30" as="geometry" />
        </mxCell>
        <mxCell id="lSXES3Q8pE3ETxAh_E6f-104" value="" style="group" vertex="1" connectable="0" parent="1">
          <mxGeometry x="440" y="240" width="120" height="65" as="geometry" />
        </mxCell>
        <mxCell id="lSXES3Q8pE3ETxAh_E6f-78" value="" style="rounded=0;whiteSpace=wrap;html=1;fillColor=none;" vertex="1" parent="lSXES3Q8pE3ETxAh_E6f-104">
          <mxGeometry y="5" width="120" height="60" as="geometry" />
        </mxCell>
        <mxCell id="lSXES3Q8pE3ETxAh_E6f-79" value="" style="rounded=0;whiteSpace=wrap;html=1;fillColor=none;" vertex="1" parent="lSXES3Q8pE3ETxAh_E6f-104">
          <mxGeometry x="40" y="5" width="40" height="20" as="geometry" />
        </mxCell>
        <mxCell id="lSXES3Q8pE3ETxAh_E6f-80" value="3" style="text;html=1;align=center;verticalAlign=middle;whiteSpace=wrap;rounded=0;" vertex="1" parent="lSXES3Q8pE3ETxAh_E6f-104">
          <mxGeometry x="30" width="60" height="30" as="geometry" />
        </mxCell>
        <mxCell id="lSXES3Q8pE3ETxAh_E6f-81" value="&#xa;&lt;div style=&quot;color: black; background-color: transparent; font-family: sans-serif;&quot;&gt;The Shawshank Redemption &lt;/div&gt;&#xa;&#xa;" style="text;html=1;align=center;verticalAlign=middle;whiteSpace=wrap;rounded=0;" vertex="1" parent="lSXES3Q8pE3ETxAh_E6f-104">
          <mxGeometry y="35" width="120" height="30" as="geometry" />
        </mxCell>
        <mxCell id="lSXES3Q8pE3ETxAh_E6f-105" value="" style="group" vertex="1" connectable="0" parent="1">
          <mxGeometry x="440" y="340" width="120" height="65" as="geometry" />
        </mxCell>
        <mxCell id="lSXES3Q8pE3ETxAh_E6f-82" value="" style="rounded=0;whiteSpace=wrap;html=1;fillColor=none;" vertex="1" parent="lSXES3Q8pE3ETxAh_E6f-105">
          <mxGeometry y="5" width="120" height="60" as="geometry" />
        </mxCell>
        <mxCell id="lSXES3Q8pE3ETxAh_E6f-83" value="" style="rounded=0;whiteSpace=wrap;html=1;fillColor=none;" vertex="1" parent="lSXES3Q8pE3ETxAh_E6f-105">
          <mxGeometry x="40" y="5" width="40" height="20" as="geometry" />
        </mxCell>
        <mxCell id="lSXES3Q8pE3ETxAh_E6f-84" value="4" style="text;html=1;align=center;verticalAlign=middle;whiteSpace=wrap;rounded=0;" vertex="1" parent="lSXES3Q8pE3ETxAh_E6f-105">
          <mxGeometry x="30" width="60" height="30" as="geometry" />
        </mxCell>
        <mxCell id="lSXES3Q8pE3ETxAh_E6f-85" value="&lt;div style=&quot;font-size: medium; text-align: start; background-color: transparent; font-family: sans-serif;&quot;&gt;&lt;div style=&quot;background-color: transparent;&quot;&gt;Pulp Fiction&lt;/div&gt;&lt;/div&gt;" style="text;html=1;align=center;verticalAlign=middle;whiteSpace=wrap;rounded=0;" vertex="1" parent="lSXES3Q8pE3ETxAh_E6f-105">
          <mxGeometry y="35" width="120" height="30" as="geometry" />
        </mxCell>
        <mxCell id="lSXES3Q8pE3ETxAh_E6f-106" value="" style="group" vertex="1" connectable="0" parent="1">
          <mxGeometry x="440" y="740" width="120" height="65" as="geometry" />
        </mxCell>
        <mxCell id="lSXES3Q8pE3ETxAh_E6f-90" value="" style="rounded=0;whiteSpace=wrap;html=1;fillColor=none;" vertex="1" parent="lSXES3Q8pE3ETxAh_E6f-106">
          <mxGeometry y="5" width="120" height="60" as="geometry" />
        </mxCell>
        <mxCell id="lSXES3Q8pE3ETxAh_E6f-91" value="" style="rounded=0;whiteSpace=wrap;html=1;fillColor=none;" vertex="1" parent="lSXES3Q8pE3ETxAh_E6f-106">
          <mxGeometry x="40" y="5" width="40" height="20" as="geometry" />
        </mxCell>
        <mxCell id="lSXES3Q8pE3ETxAh_E6f-92" value="8" style="text;html=1;align=center;verticalAlign=middle;whiteSpace=wrap;rounded=0;" vertex="1" parent="lSXES3Q8pE3ETxAh_E6f-106">
          <mxGeometry x="30" width="60" height="30" as="geometry" />
        </mxCell>
        <mxCell id="lSXES3Q8pE3ETxAh_E6f-93" value="&lt;div style=&quot;font-size: medium; text-align: start; background-color: transparent; font-family: sans-serif;&quot;&gt;&lt;div style=&quot;background-color: transparent;&quot;&gt;Snatch&lt;/div&gt;&lt;/div&gt;" style="text;html=1;align=center;verticalAlign=middle;whiteSpace=wrap;rounded=0;" vertex="1" parent="lSXES3Q8pE3ETxAh_E6f-106">
          <mxGeometry y="35" width="120" height="30" as="geometry" />
        </mxCell>
        <mxCell id="lSXES3Q8pE3ETxAh_E6f-107" value="" style="group" vertex="1" connectable="0" parent="1">
          <mxGeometry x="440" y="640" width="120" height="65" as="geometry" />
        </mxCell>
        <mxCell id="lSXES3Q8pE3ETxAh_E6f-86" value="" style="rounded=0;whiteSpace=wrap;html=1;fillColor=none;" vertex="1" parent="lSXES3Q8pE3ETxAh_E6f-107">
          <mxGeometry y="5" width="120" height="60" as="geometry" />
        </mxCell>
        <mxCell id="lSXES3Q8pE3ETxAh_E6f-87" value="" style="rounded=0;whiteSpace=wrap;html=1;fillColor=none;" vertex="1" parent="lSXES3Q8pE3ETxAh_E6f-107">
          <mxGeometry x="40" y="5" width="40" height="20" as="geometry" />
        </mxCell>
        <mxCell id="lSXES3Q8pE3ETxAh_E6f-88" value="7" style="text;html=1;align=center;verticalAlign=middle;whiteSpace=wrap;rounded=0;" vertex="1" parent="lSXES3Q8pE3ETxAh_E6f-107">
          <mxGeometry x="30" width="60" height="30" as="geometry" />
        </mxCell>
        <mxCell id="lSXES3Q8pE3ETxAh_E6f-89" value="&lt;div style=&quot;font-size: medium; text-align: start; background-color: transparent; font-family: sans-serif;&quot;&gt;&lt;div style=&quot;background-color: transparent;&quot;&gt;Fight Club&amp;nbsp;&lt;/div&gt;&lt;/div&gt;" style="text;html=1;align=center;verticalAlign=middle;whiteSpace=wrap;rounded=0;" vertex="1" parent="lSXES3Q8pE3ETxAh_E6f-107">
          <mxGeometry y="35" width="120" height="30" as="geometry" />
        </mxCell>
        <mxCell id="lSXES3Q8pE3ETxAh_E6f-108" value="" style="group" vertex="1" connectable="0" parent="1">
          <mxGeometry x="440" y="540" width="120" height="65" as="geometry" />
        </mxCell>
        <mxCell id="lSXES3Q8pE3ETxAh_E6f-74" value="" style="rounded=0;whiteSpace=wrap;html=1;fillColor=none;" vertex="1" parent="lSXES3Q8pE3ETxAh_E6f-108">
          <mxGeometry y="5" width="120" height="60" as="geometry" />
        </mxCell>
        <mxCell id="lSXES3Q8pE3ETxAh_E6f-75" value="" style="rounded=0;whiteSpace=wrap;html=1;fillColor=none;" vertex="1" parent="lSXES3Q8pE3ETxAh_E6f-108">
          <mxGeometry x="40" y="5" width="40" height="20" as="geometry" />
        </mxCell>
        <mxCell id="lSXES3Q8pE3ETxAh_E6f-76" value="6" style="text;html=1;align=center;verticalAlign=middle;whiteSpace=wrap;rounded=0;" vertex="1" parent="lSXES3Q8pE3ETxAh_E6f-108">
          <mxGeometry x="30" width="60" height="30" as="geometry" />
        </mxCell>
        <mxCell id="lSXES3Q8pE3ETxAh_E6f-77" value="&lt;div style=&quot;font-size: medium; text-align: start; background-color: transparent; font-family: sans-serif;&quot;&gt;&lt;div style=&quot;background-color: transparent;&quot;&gt;Forrest Gump&lt;/div&gt;&lt;/div&gt;" style="text;html=1;align=center;verticalAlign=middle;whiteSpace=wrap;rounded=0;" vertex="1" parent="lSXES3Q8pE3ETxAh_E6f-108">
          <mxGeometry y="35" width="120" height="30" as="geometry" />
        </mxCell>
        <mxCell id="lSXES3Q8pE3ETxAh_E6f-109" value="" style="group" vertex="1" connectable="0" parent="1">
          <mxGeometry x="440" y="440" width="120" height="65" as="geometry" />
        </mxCell>
        <mxCell id="lSXES3Q8pE3ETxAh_E6f-70" value="" style="rounded=0;whiteSpace=wrap;html=1;fillColor=none;" vertex="1" parent="lSXES3Q8pE3ETxAh_E6f-109">
          <mxGeometry y="5" width="120" height="60" as="geometry" />
        </mxCell>
        <mxCell id="lSXES3Q8pE3ETxAh_E6f-71" value="" style="rounded=0;whiteSpace=wrap;html=1;fillColor=none;" vertex="1" parent="lSXES3Q8pE3ETxAh_E6f-109">
          <mxGeometry x="40" y="5" width="40" height="20" as="geometry" />
        </mxCell>
        <mxCell id="lSXES3Q8pE3ETxAh_E6f-72" value="5" style="text;html=1;align=center;verticalAlign=middle;whiteSpace=wrap;rounded=0;" vertex="1" parent="lSXES3Q8pE3ETxAh_E6f-109">
          <mxGeometry x="30" width="60" height="30" as="geometry" />
        </mxCell>
        <mxCell id="lSXES3Q8pE3ETxAh_E6f-73" value="&lt;div style=&quot;font-size: medium; text-align: start; background-color: transparent; font-family: sans-serif;&quot;&gt;&lt;div style=&quot;background-color: transparent;&quot;&gt;The Dark Knight&lt;/div&gt;&lt;/div&gt;" style="text;html=1;align=center;verticalAlign=middle;whiteSpace=wrap;rounded=0;" vertex="1" parent="lSXES3Q8pE3ETxAh_E6f-109">
          <mxGeometry y="35" width="120" height="30" as="geometry" />
        </mxCell>
        <mxCell id="lSXES3Q8pE3ETxAh_E6f-110" value="" style="group" vertex="1" connectable="0" parent="1">
          <mxGeometry x="440" y="940" width="120" height="65" as="geometry" />
        </mxCell>
        <mxCell id="lSXES3Q8pE3ETxAh_E6f-98" value="" style="rounded=0;whiteSpace=wrap;html=1;fillColor=none;" vertex="1" parent="lSXES3Q8pE3ETxAh_E6f-110">
          <mxGeometry y="5" width="120" height="60" as="geometry" />
        </mxCell>
        <mxCell id="lSXES3Q8pE3ETxAh_E6f-99" value="" style="rounded=0;whiteSpace=wrap;html=1;fillColor=none;" vertex="1" parent="lSXES3Q8pE3ETxAh_E6f-110">
          <mxGeometry x="40" y="5" width="40" height="20" as="geometry" />
        </mxCell>
        <mxCell id="lSXES3Q8pE3ETxAh_E6f-100" value="10" style="text;html=1;align=center;verticalAlign=middle;whiteSpace=wrap;rounded=0;" vertex="1" parent="lSXES3Q8pE3ETxAh_E6f-110">
          <mxGeometry x="30" width="60" height="30" as="geometry" />
        </mxCell>
        <mxCell id="lSXES3Q8pE3ETxAh_E6f-101" value="&lt;div style=&quot;font-size: medium; text-align: start; background-color: transparent; font-family: sans-serif;&quot;&gt;The Big Short&lt;/div&gt;" style="text;html=1;align=center;verticalAlign=middle;whiteSpace=wrap;rounded=0;" vertex="1" parent="lSXES3Q8pE3ETxAh_E6f-110">
          <mxGeometry y="35" width="120" height="30" as="geometry" />
        </mxCell>
        <mxCell id="lSXES3Q8pE3ETxAh_E6f-111" value="" style="group" vertex="1" connectable="0" parent="1">
          <mxGeometry x="440" y="840" width="120" height="65" as="geometry" />
        </mxCell>
        <mxCell id="lSXES3Q8pE3ETxAh_E6f-94" value="" style="rounded=0;whiteSpace=wrap;html=1;fillColor=none;" vertex="1" parent="lSXES3Q8pE3ETxAh_E6f-111">
          <mxGeometry y="5" width="120" height="60" as="geometry" />
        </mxCell>
        <mxCell id="lSXES3Q8pE3ETxAh_E6f-95" value="" style="rounded=0;whiteSpace=wrap;html=1;fillColor=none;" vertex="1" parent="lSXES3Q8pE3ETxAh_E6f-111">
          <mxGeometry x="40" y="5" width="40" height="20" as="geometry" />
        </mxCell>
        <mxCell id="lSXES3Q8pE3ETxAh_E6f-96" value="9" style="text;html=1;align=center;verticalAlign=middle;whiteSpace=wrap;rounded=0;" vertex="1" parent="lSXES3Q8pE3ETxAh_E6f-111">
          <mxGeometry x="30" width="60" height="30" as="geometry" />
        </mxCell>
        <mxCell id="lSXES3Q8pE3ETxAh_E6f-97" value="&lt;div style=&quot;font-size: medium; text-align: start; background-color: transparent; font-family: sans-serif;&quot;&gt;Shrek&lt;/div&gt;" style="text;html=1;align=center;verticalAlign=middle;whiteSpace=wrap;rounded=0;" vertex="1" parent="lSXES3Q8pE3ETxAh_E6f-111">
          <mxGeometry y="35" width="120" height="30" as="geometry" />
        </mxCell>
        <mxCell id="lSXES3Q8pE3ETxAh_E6f-115" style="edgeStyle=orthogonalEdgeStyle;rounded=0;orthogonalLoop=1;jettySize=auto;html=1;exitX=1;exitY=0.5;exitDx=0;exitDy=0;entryX=0;entryY=0.75;entryDx=0;entryDy=0;curved=1;" edge="1" parent="1" source="lSXES3Q8pE3ETxAh_E6f-3" target="lSXES3Q8pE3ETxAh_E6f-62">
          <mxGeometry relative="1" as="geometry" />
        </mxCell>
        <mxCell id="lSXES3Q8pE3ETxAh_E6f-127" value="Raiting: 8" style="edgeLabel;html=1;align=center;verticalAlign=middle;resizable=0;points=[];" vertex="1" connectable="0" parent="lSXES3Q8pE3ETxAh_E6f-115">
          <mxGeometry x="0.0012" relative="1" as="geometry">
            <mxPoint as="offset" />
          </mxGeometry>
        </mxCell>
        <mxCell id="lSXES3Q8pE3ETxAh_E6f-116" style="edgeStyle=orthogonalEdgeStyle;rounded=0;orthogonalLoop=1;jettySize=auto;html=1;exitX=1;exitY=0.5;exitDx=0;exitDy=0;entryX=0;entryY=0.5;entryDx=0;entryDy=0;curved=1;" edge="1" parent="1" source="lSXES3Q8pE3ETxAh_E6f-3" target="lSXES3Q8pE3ETxAh_E6f-66">
          <mxGeometry relative="1" as="geometry" />
        </mxCell>
        <mxCell id="lSXES3Q8pE3ETxAh_E6f-128" value="&amp;nbsp;Raiting: 9" style="edgeLabel;html=1;align=center;verticalAlign=middle;resizable=0;points=[];" vertex="1" connectable="0" parent="lSXES3Q8pE3ETxAh_E6f-116">
          <mxGeometry x="-0.0467" y="-2" relative="1" as="geometry">
            <mxPoint as="offset" />
          </mxGeometry>
        </mxCell>
        <mxCell id="lSXES3Q8pE3ETxAh_E6f-119" style="edgeStyle=orthogonalEdgeStyle;rounded=0;orthogonalLoop=1;jettySize=auto;html=1;exitX=1;exitY=0.5;exitDx=0;exitDy=0;entryX=0;entryY=0.25;entryDx=0;entryDy=0;curved=1;" edge="1" parent="1" source="lSXES3Q8pE3ETxAh_E6f-8" target="lSXES3Q8pE3ETxAh_E6f-82">
          <mxGeometry relative="1" as="geometry" />
        </mxCell>
        <mxCell id="lSXES3Q8pE3ETxAh_E6f-130" value="Raiting: 7" style="edgeLabel;html=1;align=center;verticalAlign=middle;resizable=0;points=[];" vertex="1" connectable="0" parent="lSXES3Q8pE3ETxAh_E6f-119">
          <mxGeometry x="0.0317" y="-2" relative="1" as="geometry">
            <mxPoint as="offset" />
          </mxGeometry>
        </mxCell>
        <mxCell id="lSXES3Q8pE3ETxAh_E6f-120" style="edgeStyle=orthogonalEdgeStyle;rounded=0;orthogonalLoop=1;jettySize=auto;html=1;exitX=1;exitY=0.5;exitDx=0;exitDy=0;entryX=0;entryY=0.25;entryDx=0;entryDy=0;curved=1;" edge="1" parent="1" source="lSXES3Q8pE3ETxAh_E6f-8" target="lSXES3Q8pE3ETxAh_E6f-78">
          <mxGeometry relative="1" as="geometry" />
        </mxCell>
        <mxCell id="lSXES3Q8pE3ETxAh_E6f-129" value="Raiting: 10" style="edgeLabel;html=1;align=center;verticalAlign=middle;resizable=0;points=[];" vertex="1" connectable="0" parent="lSXES3Q8pE3ETxAh_E6f-120">
          <mxGeometry x="-0.0511" y="-2" relative="1" as="geometry">
            <mxPoint as="offset" />
          </mxGeometry>
        </mxCell>
        <mxCell id="lSXES3Q8pE3ETxAh_E6f-121" style="edgeStyle=orthogonalEdgeStyle;rounded=0;orthogonalLoop=1;jettySize=auto;html=1;exitX=1;exitY=0.5;exitDx=0;exitDy=0;entryX=0;entryY=0.25;entryDx=0;entryDy=0;curved=1;" edge="1" parent="1" source="lSXES3Q8pE3ETxAh_E6f-23" target="lSXES3Q8pE3ETxAh_E6f-70">
          <mxGeometry relative="1" as="geometry" />
        </mxCell>
        <mxCell id="lSXES3Q8pE3ETxAh_E6f-131" value="Raiting: 9" style="edgeLabel;html=1;align=center;verticalAlign=middle;resizable=0;points=[];" vertex="1" connectable="0" parent="lSXES3Q8pE3ETxAh_E6f-121">
          <mxGeometry x="0.0317" y="-2" relative="1" as="geometry">
            <mxPoint as="offset" />
          </mxGeometry>
        </mxCell>
        <mxCell id="lSXES3Q8pE3ETxAh_E6f-122" style="edgeStyle=orthogonalEdgeStyle;rounded=0;orthogonalLoop=1;jettySize=auto;html=1;exitX=1;exitY=0.5;exitDx=0;exitDy=0;entryX=0;entryY=0.25;entryDx=0;entryDy=0;curved=1;" edge="1" parent="1" source="lSXES3Q8pE3ETxAh_E6f-28" target="lSXES3Q8pE3ETxAh_E6f-74">
          <mxGeometry relative="1" as="geometry" />
        </mxCell>
        <mxCell id="lSXES3Q8pE3ETxAh_E6f-132" value="Raiting: 8" style="edgeLabel;html=1;align=center;verticalAlign=middle;resizable=0;points=[];" vertex="1" connectable="0" parent="lSXES3Q8pE3ETxAh_E6f-122">
          <mxGeometry x="-0.0231" y="-2" relative="1" as="geometry">
            <mxPoint as="offset" />
          </mxGeometry>
        </mxCell>
        <mxCell id="lSXES3Q8pE3ETxAh_E6f-123" style="edgeStyle=orthogonalEdgeStyle;rounded=0;orthogonalLoop=1;jettySize=auto;html=1;exitX=1;exitY=0.5;exitDx=0;exitDy=0;entryX=0;entryY=0.5;entryDx=0;entryDy=0;curved=1;" edge="1" parent="1" source="lSXES3Q8pE3ETxAh_E6f-43" target="lSXES3Q8pE3ETxAh_E6f-89">
          <mxGeometry relative="1" as="geometry" />
        </mxCell>
        <mxCell id="lSXES3Q8pE3ETxAh_E6f-133" value="Raiting: 10" style="edgeLabel;html=1;align=center;verticalAlign=middle;resizable=0;points=[];" vertex="1" connectable="0" parent="lSXES3Q8pE3ETxAh_E6f-123">
          <mxGeometry x="-0.002" y="-2" relative="1" as="geometry">
            <mxPoint as="offset" />
          </mxGeometry>
        </mxCell>
        <mxCell id="lSXES3Q8pE3ETxAh_E6f-124" style="edgeStyle=orthogonalEdgeStyle;rounded=0;orthogonalLoop=1;jettySize=auto;html=1;exitX=1;exitY=0.5;exitDx=0;exitDy=0;entryX=0;entryY=0.5;entryDx=0;entryDy=0;curved=1;" edge="1" parent="1" source="lSXES3Q8pE3ETxAh_E6f-18" target="lSXES3Q8pE3ETxAh_E6f-93">
          <mxGeometry relative="1" as="geometry" />
        </mxCell>
        <mxCell id="lSXES3Q8pE3ETxAh_E6f-135" value="Raiting: 9" style="edgeLabel;html=1;align=center;verticalAlign=middle;resizable=0;points=[];" vertex="1" connectable="0" parent="lSXES3Q8pE3ETxAh_E6f-124">
          <mxGeometry x="-0.0101" y="2" relative="1" as="geometry">
            <mxPoint as="offset" />
          </mxGeometry>
        </mxCell>
        <mxCell id="lSXES3Q8pE3ETxAh_E6f-125" style="edgeStyle=orthogonalEdgeStyle;rounded=0;orthogonalLoop=1;jettySize=auto;html=1;exitX=1;exitY=0.5;exitDx=0;exitDy=0;entryX=0;entryY=0.25;entryDx=0;entryDy=0;curved=1;" edge="1" parent="1" source="lSXES3Q8pE3ETxAh_E6f-13" target="lSXES3Q8pE3ETxAh_E6f-94">
          <mxGeometry relative="1" as="geometry" />
        </mxCell>
        <mxCell id="lSXES3Q8pE3ETxAh_E6f-136" value="Raiting: 8" style="edgeLabel;html=1;align=center;verticalAlign=middle;resizable=0;points=[];" vertex="1" connectable="0" parent="lSXES3Q8pE3ETxAh_E6f-125">
          <mxGeometry x="0.0664" y="2" relative="1" as="geometry">
            <mxPoint as="offset" />
          </mxGeometry>
        </mxCell>
        <mxCell id="lSXES3Q8pE3ETxAh_E6f-126" style="edgeStyle=orthogonalEdgeStyle;rounded=0;orthogonalLoop=1;jettySize=auto;html=1;exitX=1;exitY=0.5;exitDx=0;exitDy=0;entryX=0;entryY=0.25;entryDx=0;entryDy=0;curved=1;" edge="1" parent="1" source="lSXES3Q8pE3ETxAh_E6f-38" target="lSXES3Q8pE3ETxAh_E6f-98">
          <mxGeometry relative="1" as="geometry" />
        </mxCell>
        <mxCell id="lSXES3Q8pE3ETxAh_E6f-137" value="Raiting: 9" style="edgeLabel;html=1;align=center;verticalAlign=middle;resizable=0;points=[];" vertex="1" connectable="0" parent="lSXES3Q8pE3ETxAh_E6f-126">
          <mxGeometry x="0.0346" relative="1" as="geometry">
            <mxPoint as="offset" />
          </mxGeometry>
        </mxCell>
      </root>
    </mxGraphModel>
  </diagram>
  <diagram id="KchcQc-mx5Nwhm6L9I8k" name="Knows">
    <mxGraphModel dx="864" dy="450" grid="1" gridSize="10" guides="1" tooltips="1" connect="1" arrows="1" fold="1" page="1" pageScale="1" pageWidth="827" pageHeight="1169" math="0" shadow="0">
      <root>
        <mxCell id="0" />
        <mxCell id="1" parent="0" />
        <mxCell id="h2oaepT0-k5swjMxcSdg-5" value="" style="group" vertex="1" connectable="0" parent="1">
          <mxGeometry x="90" y="340" width="80" height="80" as="geometry" />
        </mxCell>
        <mxCell id="h2oaepT0-k5swjMxcSdg-1" value="" style="ellipse;whiteSpace=wrap;html=1;aspect=fixed;fillColor=none;" vertex="1" parent="h2oaepT0-k5swjMxcSdg-5">
          <mxGeometry x="20" width="40" height="40" as="geometry" />
        </mxCell>
        <mxCell id="h2oaepT0-k5swjMxcSdg-2" value="" style="ellipse;whiteSpace=wrap;html=1;aspect=fixed;fillColor=none;" vertex="1" parent="h2oaepT0-k5swjMxcSdg-5">
          <mxGeometry width="80" height="80" as="geometry" />
        </mxCell>
        <mxCell id="h2oaepT0-k5swjMxcSdg-3" value="1" style="text;html=1;align=center;verticalAlign=middle;whiteSpace=wrap;rounded=0;" vertex="1" parent="h2oaepT0-k5swjMxcSdg-5">
          <mxGeometry x="10" y="5" width="60" height="30" as="geometry" />
        </mxCell>
        <mxCell id="h2oaepT0-k5swjMxcSdg-4" value="&lt;div style=&quot;color: black; font-size: medium; text-align: start; background-color: transparent; font-family: sans-serif;&quot;&gt;&lt;span style=&quot;background-color: transparent; border: 0px solid black; box-sizing: border-box; display: inline; font-style: inherit; font-variant: inherit; font-weight: inherit; font-stretch: inherit; font-size: inherit; line-height: inherit; font-optical-sizing: inherit; font-size-adjust: inherit; font-kerning: inherit; font-feature-settings: inherit; font-variation-settings: inherit; list-style: none; margin: 0px; padding: 0px; position: relative; text-align: inherit; white-space: inherit; overflow-wrap: break-word; min-width: 0px;&quot; class=&quot;css-1jxf684 r-bcqeeo r-1ttztb7 r-qvutc0 r-poiln3&quot;&gt;Alice&lt;/span&gt;&lt;span style=&quot;background-color: transparent; border: 0px solid black; box-sizing: border-box; display: inline; font-style: inherit; font-variant: inherit; font-weight: inherit; font-stretch: inherit; font-size: inherit; line-height: inherit; font-optical-sizing: inherit; font-size-adjust: inherit; font-kerning: inherit; font-feature-settings: inherit; font-variation-settings: inherit; list-style: none; margin: 0px; padding: 0px; position: relative; text-align: inherit; white-space: inherit; overflow-wrap: break-word; min-width: 0px;&quot; class=&quot;css-1jxf684 r-bcqeeo r-1ttztb7 r-qvutc0 r-poiln3&quot;&gt;&lt;/span&gt;&lt;/div&gt;" style="text;html=1;align=center;verticalAlign=middle;whiteSpace=wrap;rounded=0;" vertex="1" parent="h2oaepT0-k5swjMxcSdg-5">
          <mxGeometry x="10" y="40" width="60" height="30" as="geometry" />
        </mxCell>
        <mxCell id="h2oaepT0-k5swjMxcSdg-12" value="" style="group" vertex="1" connectable="0" parent="1">
          <mxGeometry x="190" y="340" width="80" height="80" as="geometry" />
        </mxCell>
        <mxCell id="h2oaepT0-k5swjMxcSdg-13" value="" style="ellipse;whiteSpace=wrap;html=1;aspect=fixed;fillColor=none;" vertex="1" parent="h2oaepT0-k5swjMxcSdg-12">
          <mxGeometry x="20" width="40" height="40" as="geometry" />
        </mxCell>
        <mxCell id="h2oaepT0-k5swjMxcSdg-14" value="" style="ellipse;whiteSpace=wrap;html=1;aspect=fixed;fillColor=none;" vertex="1" parent="h2oaepT0-k5swjMxcSdg-12">
          <mxGeometry width="80" height="80" as="geometry" />
        </mxCell>
        <mxCell id="h2oaepT0-k5swjMxcSdg-15" value="2" style="text;html=1;align=center;verticalAlign=middle;whiteSpace=wrap;rounded=0;" vertex="1" parent="h2oaepT0-k5swjMxcSdg-12">
          <mxGeometry x="10" y="5" width="60" height="30" as="geometry" />
        </mxCell>
        <mxCell id="h2oaepT0-k5swjMxcSdg-16" value="&lt;div style=&quot;font-size: medium; text-align: start; background-color: transparent; font-family: sans-serif;&quot;&gt;Bob&lt;/div&gt;" style="text;html=1;align=center;verticalAlign=middle;whiteSpace=wrap;rounded=0;" vertex="1" parent="h2oaepT0-k5swjMxcSdg-12">
          <mxGeometry x="10" y="40" width="60" height="30" as="geometry" />
        </mxCell>
        <mxCell id="h2oaepT0-k5swjMxcSdg-17" value="" style="group" vertex="1" connectable="0" parent="1">
          <mxGeometry x="180" y="500" width="80" height="80" as="geometry" />
        </mxCell>
        <mxCell id="h2oaepT0-k5swjMxcSdg-18" value="" style="ellipse;whiteSpace=wrap;html=1;aspect=fixed;fillColor=none;" vertex="1" parent="h2oaepT0-k5swjMxcSdg-17">
          <mxGeometry x="20" width="40" height="40" as="geometry" />
        </mxCell>
        <mxCell id="h2oaepT0-k5swjMxcSdg-19" value="" style="ellipse;whiteSpace=wrap;html=1;aspect=fixed;fillColor=none;" vertex="1" parent="h2oaepT0-k5swjMxcSdg-17">
          <mxGeometry width="80" height="80" as="geometry" />
        </mxCell>
        <mxCell id="h2oaepT0-k5swjMxcSdg-20" value="7" style="text;html=1;align=center;verticalAlign=middle;whiteSpace=wrap;rounded=0;" vertex="1" parent="h2oaepT0-k5swjMxcSdg-17">
          <mxGeometry x="10" y="5" width="60" height="30" as="geometry" />
        </mxCell>
        <mxCell id="h2oaepT0-k5swjMxcSdg-21" value="&lt;div style=&quot;font-size: medium; text-align: start; background-color: transparent; font-family: sans-serif;&quot;&gt;George&lt;/div&gt;" style="text;html=1;align=center;verticalAlign=middle;whiteSpace=wrap;rounded=0;" vertex="1" parent="h2oaepT0-k5swjMxcSdg-17">
          <mxGeometry x="10" y="40" width="60" height="30" as="geometry" />
        </mxCell>
        <mxCell id="h2oaepT0-k5swjMxcSdg-22" value="" style="group" vertex="1" connectable="0" parent="1">
          <mxGeometry x="90" y="500" width="80" height="80" as="geometry" />
        </mxCell>
        <mxCell id="h2oaepT0-k5swjMxcSdg-23" value="" style="ellipse;whiteSpace=wrap;html=1;aspect=fixed;fillColor=none;" vertex="1" parent="h2oaepT0-k5swjMxcSdg-22">
          <mxGeometry x="20" width="40" height="40" as="geometry" />
        </mxCell>
        <mxCell id="h2oaepT0-k5swjMxcSdg-24" value="" style="ellipse;whiteSpace=wrap;html=1;aspect=fixed;fillColor=none;" vertex="1" parent="h2oaepT0-k5swjMxcSdg-22">
          <mxGeometry width="80" height="80" as="geometry" />
        </mxCell>
        <mxCell id="h2oaepT0-k5swjMxcSdg-25" value="6" style="text;html=1;align=center;verticalAlign=middle;whiteSpace=wrap;rounded=0;" vertex="1" parent="h2oaepT0-k5swjMxcSdg-22">
          <mxGeometry x="10" y="5" width="60" height="30" as="geometry" />
        </mxCell>
        <mxCell id="h2oaepT0-k5swjMxcSdg-26" value="&lt;div style=&quot;font-size: medium; text-align: start; background-color: transparent; font-family: sans-serif;&quot;&gt;Fiona&lt;/div&gt;" style="text;html=1;align=center;verticalAlign=middle;whiteSpace=wrap;rounded=0;" vertex="1" parent="h2oaepT0-k5swjMxcSdg-22">
          <mxGeometry x="10" y="40" width="60" height="30" as="geometry" />
        </mxCell>
        <mxCell id="h2oaepT0-k5swjMxcSdg-28" value="" style="group" vertex="1" connectable="0" parent="1">
          <mxGeometry x="280" y="340" width="80" height="80" as="geometry" />
        </mxCell>
        <mxCell id="h2oaepT0-k5swjMxcSdg-29" value="" style="ellipse;whiteSpace=wrap;html=1;aspect=fixed;fillColor=none;" vertex="1" parent="h2oaepT0-k5swjMxcSdg-28">
          <mxGeometry x="20" width="40" height="40" as="geometry" />
        </mxCell>
        <mxCell id="h2oaepT0-k5swjMxcSdg-30" value="" style="ellipse;whiteSpace=wrap;html=1;aspect=fixed;fillColor=none;" vertex="1" parent="h2oaepT0-k5swjMxcSdg-28">
          <mxGeometry width="80" height="80" as="geometry" />
        </mxCell>
        <mxCell id="h2oaepT0-k5swjMxcSdg-31" value="3" style="text;html=1;align=center;verticalAlign=middle;whiteSpace=wrap;rounded=0;" vertex="1" parent="h2oaepT0-k5swjMxcSdg-28">
          <mxGeometry x="10" y="5" width="60" height="30" as="geometry" />
        </mxCell>
        <mxCell id="h2oaepT0-k5swjMxcSdg-32" value="&lt;div style=&quot;font-size: medium; text-align: start; background-color: transparent; font-family: sans-serif;&quot;&gt;Charlie&lt;/div&gt;" style="text;html=1;align=center;verticalAlign=middle;whiteSpace=wrap;rounded=0;" vertex="1" parent="h2oaepT0-k5swjMxcSdg-28">
          <mxGeometry x="10" y="40" width="60" height="30" as="geometry" />
        </mxCell>
        <mxCell id="h2oaepT0-k5swjMxcSdg-33" value="" style="group" vertex="1" connectable="0" parent="1">
          <mxGeometry x="370" y="340" width="80" height="80" as="geometry" />
        </mxCell>
        <mxCell id="h2oaepT0-k5swjMxcSdg-34" value="" style="ellipse;whiteSpace=wrap;html=1;aspect=fixed;fillColor=none;" vertex="1" parent="h2oaepT0-k5swjMxcSdg-33">
          <mxGeometry x="20" width="40" height="40" as="geometry" />
        </mxCell>
        <mxCell id="h2oaepT0-k5swjMxcSdg-35" value="" style="ellipse;whiteSpace=wrap;html=1;aspect=fixed;fillColor=none;" vertex="1" parent="h2oaepT0-k5swjMxcSdg-33">
          <mxGeometry width="80" height="80" as="geometry" />
        </mxCell>
        <mxCell id="h2oaepT0-k5swjMxcSdg-36" value="4" style="text;html=1;align=center;verticalAlign=middle;whiteSpace=wrap;rounded=0;" vertex="1" parent="h2oaepT0-k5swjMxcSdg-33">
          <mxGeometry x="10" y="5" width="60" height="30" as="geometry" />
        </mxCell>
        <mxCell id="h2oaepT0-k5swjMxcSdg-37" value="&lt;div style=&quot;font-size: medium; text-align: start; background-color: transparent; font-family: sans-serif;&quot;&gt;Diana&lt;/div&gt;" style="text;html=1;align=center;verticalAlign=middle;whiteSpace=wrap;rounded=0;" vertex="1" parent="h2oaepT0-k5swjMxcSdg-33">
          <mxGeometry x="10" y="40" width="60" height="30" as="geometry" />
        </mxCell>
        <mxCell id="h2oaepT0-k5swjMxcSdg-38" value="" style="group" vertex="1" connectable="0" parent="1">
          <mxGeometry x="370" y="500" width="80" height="80" as="geometry" />
        </mxCell>
        <mxCell id="h2oaepT0-k5swjMxcSdg-39" value="" style="ellipse;whiteSpace=wrap;html=1;aspect=fixed;fillColor=none;" vertex="1" parent="h2oaepT0-k5swjMxcSdg-38">
          <mxGeometry x="20" width="40" height="40" as="geometry" />
        </mxCell>
        <mxCell id="h2oaepT0-k5swjMxcSdg-40" value="" style="ellipse;whiteSpace=wrap;html=1;aspect=fixed;fillColor=none;" vertex="1" parent="h2oaepT0-k5swjMxcSdg-38">
          <mxGeometry width="80" height="80" as="geometry" />
        </mxCell>
        <mxCell id="h2oaepT0-k5swjMxcSdg-41" value="9" style="text;html=1;align=center;verticalAlign=middle;whiteSpace=wrap;rounded=0;" vertex="1" parent="h2oaepT0-k5swjMxcSdg-38">
          <mxGeometry x="10" y="5" width="60" height="30" as="geometry" />
        </mxCell>
        <mxCell id="h2oaepT0-k5swjMxcSdg-42" value="&lt;div style=&quot;font-size: medium; text-align: start; background-color: transparent; font-family: sans-serif;&quot;&gt;Ian&lt;/div&gt;" style="text;html=1;align=center;verticalAlign=middle;whiteSpace=wrap;rounded=0;" vertex="1" parent="h2oaepT0-k5swjMxcSdg-38">
          <mxGeometry x="10" y="40" width="60" height="30" as="geometry" />
        </mxCell>
        <mxCell id="h2oaepT0-k5swjMxcSdg-43" value="" style="group" vertex="1" connectable="0" parent="1">
          <mxGeometry x="280" y="500" width="80" height="80" as="geometry" />
        </mxCell>
        <mxCell id="h2oaepT0-k5swjMxcSdg-44" value="" style="ellipse;whiteSpace=wrap;html=1;aspect=fixed;fillColor=none;" vertex="1" parent="h2oaepT0-k5swjMxcSdg-43">
          <mxGeometry x="20" width="40" height="40" as="geometry" />
        </mxCell>
        <mxCell id="h2oaepT0-k5swjMxcSdg-45" value="" style="ellipse;whiteSpace=wrap;html=1;aspect=fixed;fillColor=none;" vertex="1" parent="h2oaepT0-k5swjMxcSdg-43">
          <mxGeometry width="80" height="80" as="geometry" />
        </mxCell>
        <mxCell id="h2oaepT0-k5swjMxcSdg-46" value="8" style="text;html=1;align=center;verticalAlign=middle;whiteSpace=wrap;rounded=0;" vertex="1" parent="h2oaepT0-k5swjMxcSdg-43">
          <mxGeometry x="10" y="5" width="60" height="30" as="geometry" />
        </mxCell>
        <mxCell id="h2oaepT0-k5swjMxcSdg-47" value="&lt;div style=&quot;font-size: medium; text-align: start; background-color: transparent; font-family: sans-serif;&quot;&gt;Hannah&lt;/div&gt;" style="text;html=1;align=center;verticalAlign=middle;whiteSpace=wrap;rounded=0;" vertex="1" parent="h2oaepT0-k5swjMxcSdg-43">
          <mxGeometry x="10" y="40" width="60" height="30" as="geometry" />
        </mxCell>
        <mxCell id="h2oaepT0-k5swjMxcSdg-89" value="" style="group" vertex="1" connectable="0" parent="1">
          <mxGeometry x="460" y="340" width="80" height="80" as="geometry" />
        </mxCell>
        <mxCell id="h2oaepT0-k5swjMxcSdg-90" value="" style="ellipse;whiteSpace=wrap;html=1;aspect=fixed;fillColor=none;" vertex="1" parent="h2oaepT0-k5swjMxcSdg-89">
          <mxGeometry x="20" width="40" height="40" as="geometry" />
        </mxCell>
        <mxCell id="h2oaepT0-k5swjMxcSdg-91" value="" style="ellipse;whiteSpace=wrap;html=1;aspect=fixed;fillColor=none;" vertex="1" parent="h2oaepT0-k5swjMxcSdg-89">
          <mxGeometry width="80" height="80" as="geometry" />
        </mxCell>
        <mxCell id="h2oaepT0-k5swjMxcSdg-92" value="5" style="text;html=1;align=center;verticalAlign=middle;whiteSpace=wrap;rounded=0;" vertex="1" parent="h2oaepT0-k5swjMxcSdg-89">
          <mxGeometry x="10" y="5" width="60" height="30" as="geometry" />
        </mxCell>
        <mxCell id="h2oaepT0-k5swjMxcSdg-93" value="&lt;div style=&quot;font-size: medium; text-align: start; background-color: transparent; font-family: sans-serif;&quot;&gt;Ethan&lt;/div&gt;" style="text;html=1;align=center;verticalAlign=middle;whiteSpace=wrap;rounded=0;" vertex="1" parent="h2oaepT0-k5swjMxcSdg-89">
          <mxGeometry x="10" y="40" width="60" height="30" as="geometry" />
        </mxCell>
        <mxCell id="h2oaepT0-k5swjMxcSdg-104" value="" style="group" vertex="1" connectable="0" parent="1">
          <mxGeometry x="460" y="500" width="80" height="80" as="geometry" />
        </mxCell>
        <mxCell id="h2oaepT0-k5swjMxcSdg-105" value="" style="ellipse;whiteSpace=wrap;html=1;aspect=fixed;fillColor=none;" vertex="1" parent="h2oaepT0-k5swjMxcSdg-104">
          <mxGeometry x="20" width="40" height="40" as="geometry" />
        </mxCell>
        <mxCell id="h2oaepT0-k5swjMxcSdg-106" value="" style="ellipse;whiteSpace=wrap;html=1;aspect=fixed;fillColor=none;" vertex="1" parent="h2oaepT0-k5swjMxcSdg-104">
          <mxGeometry width="80" height="80" as="geometry" />
        </mxCell>
        <mxCell id="h2oaepT0-k5swjMxcSdg-107" value="10" style="text;html=1;align=center;verticalAlign=middle;whiteSpace=wrap;rounded=0;" vertex="1" parent="h2oaepT0-k5swjMxcSdg-104">
          <mxGeometry x="10" y="5" width="60" height="30" as="geometry" />
        </mxCell>
        <mxCell id="h2oaepT0-k5swjMxcSdg-108" value="&lt;div style=&quot;font-size: medium; text-align: start; background-color: transparent; font-family: sans-serif;&quot;&gt;Julia&lt;/div&gt;" style="text;html=1;align=center;verticalAlign=middle;whiteSpace=wrap;rounded=0;" vertex="1" parent="h2oaepT0-k5swjMxcSdg-104">
          <mxGeometry x="10" y="40" width="60" height="30" as="geometry" />
        </mxCell>
        <mxCell id="XDzIokdA2KBpzAVrFKNW-1" style="edgeStyle=orthogonalEdgeStyle;rounded=0;orthogonalLoop=1;jettySize=auto;html=1;exitX=1;exitY=0.5;exitDx=0;exitDy=0;entryX=0;entryY=0.5;entryDx=0;entryDy=0;" edge="1" parent="1" source="h2oaepT0-k5swjMxcSdg-2" target="h2oaepT0-k5swjMxcSdg-14">
          <mxGeometry relative="1" as="geometry" />
        </mxCell>
        <mxCell id="XDzIokdA2KBpzAVrFKNW-2" style="edgeStyle=orthogonalEdgeStyle;rounded=0;orthogonalLoop=1;jettySize=auto;html=1;exitX=0.5;exitY=0;exitDx=0;exitDy=0;entryX=0.5;entryY=0;entryDx=0;entryDy=0;curved=1;" edge="1" parent="1" source="h2oaepT0-k5swjMxcSdg-2" target="h2oaepT0-k5swjMxcSdg-31">
          <mxGeometry relative="1" as="geometry" />
        </mxCell>
        <mxCell id="XDzIokdA2KBpzAVrFKNW-7" style="edgeStyle=orthogonalEdgeStyle;rounded=0;orthogonalLoop=1;jettySize=auto;html=1;exitX=0.5;exitY=0;exitDx=0;exitDy=0;entryX=0.5;entryY=0;entryDx=0;entryDy=0;curved=1;" edge="1" parent="1" source="h2oaepT0-k5swjMxcSdg-14" target="h2oaepT0-k5swjMxcSdg-35">
          <mxGeometry relative="1" as="geometry">
            <Array as="points">
              <mxPoint x="230" y="310" />
              <mxPoint x="410" y="310" />
            </Array>
          </mxGeometry>
        </mxCell>
        <mxCell id="XDzIokdA2KBpzAVrFKNW-10" style="edgeStyle=orthogonalEdgeStyle;rounded=0;orthogonalLoop=1;jettySize=auto;html=1;exitX=0.5;exitY=1;exitDx=0;exitDy=0;entryX=0.306;entryY=1.004;entryDx=0;entryDy=0;entryPerimeter=0;curved=1;" edge="1" parent="1" source="h2oaepT0-k5swjMxcSdg-30" target="h2oaepT0-k5swjMxcSdg-91">
          <mxGeometry relative="1" as="geometry" />
        </mxCell>
        <mxCell id="XDzIokdA2KBpzAVrFKNW-11" style="edgeStyle=orthogonalEdgeStyle;rounded=0;orthogonalLoop=1;jettySize=auto;html=1;exitX=0.5;exitY=1;exitDx=0;exitDy=0;entryX=0.5;entryY=0;entryDx=0;entryDy=0;curved=1;" edge="1" parent="1" source="h2oaepT0-k5swjMxcSdg-35" target="h2oaepT0-k5swjMxcSdg-24">
          <mxGeometry relative="1" as="geometry">
            <Array as="points">
              <mxPoint x="410" y="470" />
              <mxPoint x="130" y="470" />
            </Array>
          </mxGeometry>
        </mxCell>
        <mxCell id="XDzIokdA2KBpzAVrFKNW-14" style="edgeStyle=orthogonalEdgeStyle;rounded=0;orthogonalLoop=1;jettySize=auto;html=1;exitX=0.5;exitY=1;exitDx=0;exitDy=0;entryX=0.5;entryY=0;entryDx=0;entryDy=0;curved=1;" edge="1" parent="1" source="h2oaepT0-k5swjMxcSdg-91" target="h2oaepT0-k5swjMxcSdg-19">
          <mxGeometry relative="1" as="geometry">
            <Array as="points">
              <mxPoint x="500" y="480" />
              <mxPoint x="220" y="480" />
            </Array>
          </mxGeometry>
        </mxCell>
        <mxCell id="XDzIokdA2KBpzAVrFKNW-16" style="edgeStyle=orthogonalEdgeStyle;rounded=0;orthogonalLoop=1;jettySize=auto;html=1;exitX=0.5;exitY=1;exitDx=0;exitDy=0;entryX=0.5;entryY=1;entryDx=0;entryDy=0;curved=1;" edge="1" parent="1" source="h2oaepT0-k5swjMxcSdg-24" target="h2oaepT0-k5swjMxcSdg-45">
          <mxGeometry relative="1" as="geometry" />
        </mxCell>
        <mxCell id="XDzIokdA2KBpzAVrFKNW-17" style="edgeStyle=orthogonalEdgeStyle;rounded=0;orthogonalLoop=1;jettySize=auto;html=1;exitX=0.5;exitY=1;exitDx=0;exitDy=0;entryX=0.5;entryY=1;entryDx=0;entryDy=0;curved=1;" edge="1" parent="1" source="h2oaepT0-k5swjMxcSdg-19" target="h2oaepT0-k5swjMxcSdg-40">
          <mxGeometry relative="1" as="geometry">
            <Array as="points">
              <mxPoint x="220" y="620" />
              <mxPoint x="410" y="620" />
            </Array>
          </mxGeometry>
        </mxCell>
        <mxCell id="XDzIokdA2KBpzAVrFKNW-18" style="edgeStyle=orthogonalEdgeStyle;rounded=0;orthogonalLoop=1;jettySize=auto;html=1;exitX=0.5;exitY=0;exitDx=0;exitDy=0;entryX=0.5;entryY=0;entryDx=0;entryDy=0;curved=1;" edge="1" parent="1">
          <mxGeometry relative="1" as="geometry">
            <mxPoint x="320" y="510" as="sourcePoint" />
            <mxPoint x="500" y="510" as="targetPoint" />
            <Array as="points">
              <mxPoint x="320" y="490" />
              <mxPoint x="500" y="490" />
            </Array>
          </mxGeometry>
        </mxCell>
        <mxCell id="XDzIokdA2KBpzAVrFKNW-19" style="edgeStyle=orthogonalEdgeStyle;rounded=0;orthogonalLoop=1;jettySize=auto;html=1;exitX=0.5;exitY=0;exitDx=0;exitDy=0;entryX=0.5;entryY=1;entryDx=0;entryDy=0;curved=1;" edge="1" parent="1" source="h2oaepT0-k5swjMxcSdg-40" target="h2oaepT0-k5swjMxcSdg-2">
          <mxGeometry relative="1" as="geometry" />
        </mxCell>
      </root>
    </mxGraphModel>
  </diagram>
</mxfile>
